<?xml version="1.0" encoding="UTF-8"?><svg id="b" xmlns="http://www.w3.org/2000/svg" viewBox="0 0 279.284 279.2841"><g id="c"><path d="M160.7598,175.3441c-8.0257-2.4661-14.6421-5.4932-19.5931-8.7692-6.4811,7.9574-12.8783,15.8876-19.1809,23.7988-.1462.1837-.0283.5321.2203.6764,10.6183,3.0205,21.1209,6.1707,31.7389,9.1913.4542.1292.8119.0133.9023-.4731,1.5418-8.2894,3.5175-16.4291,5.9125-24.4242h0ZM146.4766,160.0716c18.4385-22.5266,37.5214-45.2849,57.0013-68.4467.2526-.2926.4272-.351.5585-.2795.1184.1114.0657.3421-.074.6329-17.3532,22.9595-31.5159,48.3503-40.735,75.6238-6.2584-2.2495-11.8942-4.5167-16.7508-7.5305h0ZM82.4085,89.82c2.6158,0,4.7373,2.1215,4.7373,4.7373s-2.1215,4.7373-4.7373,4.7373-4.7372-2.1215-4.7372-4.7373,2.1211-4.7373,4.7372-4.7373h0ZM158.6795,95.2348c1.3918.8597,1.243-2.7598,1.0808-2.865-3.988-2.5866-7.9699-4.8317-11.8236-6.6509-3.8537-1.8193-7.5792-3.2128-11.0554-4.0972-.3226-.0822-.826-.1585-.9901-.0511-.5196.3986.3098.8091.6982.9774,7.2731,3.155,14.4677,7.3032,21.2632,12.0989.1381.0972.2761.195.4139.2931.1377.0981.2707.2069.413.2948h0ZM83.9443,101.9583c.4697.0178.6055.4467.8742.9467,22.1383,41.1925,86.0851,81.1837,109.4431,66.0816,6.0418-4.9983,7.638-12.2803,5.9375-20.6019-1.6608-8.127-6.4797-17.2347-13.3461-26.1978-.1647-.2152-.3742-.4068-.4977-.6452-1.1393-2.1966,1.125-3.9583,2.3703-3.6984.3367.0703.5805.4071.8087.6633,16.0313,17.9833,23.2007,40.0434,9.7543,54.6693-27.5151,23.0482-104.9295-29.8454-115.3865-69.6685-.1412-.5374-.4417-1.4278.0422-1.5491h0ZM100.917,133.8384c8.0706,9.8368,19.757,19.7977,33.001,28.3433-7.8137,8.121-15.6277,16.2511-23.4417,24.3995-.4422.4014-1.116.4626-1.5361-.2792-9.4955-17.8741-18.9912-35.7483-28.487-53.6224-.6724-1.0831.8444-.5737,1.955-.1395,5.3436,2.2626,11.4585,2.6448,18.5088,1.2983h0ZM139.4688,156.4141c20.7779-21.5847,41.5556-43.1221,62.3333-64.7892.0958-.3858-.4748-.6327-1.1171-.838-18.6971-6.3635-34.8532.0604-46.2215,10.7524-15.1566,14.857-31.5522,25.6266-46.042,30.3616,8.4353,9.2231,18.8118,16.6978,31.0473,24.5132Z" fill="#002c61" fill-rule="evenodd" stroke-width="0"/><path d="M139.642,6.9821c73.2538,0,132.66,59.4062,132.66,132.66s-59.4062,132.66-132.66,132.66S6.982,212.8958,6.982,139.6421,66.3885,6.9821,139.642,6.9821h0ZM139.642,0C62.5331,0,0,62.5329,0,139.6421s62.5331,139.642,139.642,139.642,139.642-62.5329,139.642-139.642S216.7509,0,139.642,0Z" fill="#002c61" fill-rule="evenodd" stroke-width="0"/><path d="M139.642,45.9153c52.6912,0,95.4221,42.7306,95.4221,95.4222s-42.7309,95.4218-95.4221,95.4218-95.4221-42.7306-95.4221-95.4218,42.7311-95.4222,95.4221-95.4222h0ZM139.642,49.4065c-50.7634,0-91.931,41.1673-91.931,91.931s41.1676,91.9309,91.931,91.9309,91.931-41.1675,91.931-91.9309-41.1676-91.931-91.931-91.931Z" fill="#002c61" fill-rule="evenodd" stroke-width="0"/><path d="M18.6341,149.3079l4.2267-.5703.0579.4277c-.9879.2758-1.7646.8479-2.3236,1.7192-.5587.8711-.7716,1.8114-.6347,2.827.0882.6528.3104,1.1603.6698,1.5211.3569.3643.775.5139,1.2544.449.7356-.0992,1.3887-1.1568,1.9613-3.1742.0034-.0179.0051-.0267.0051-.0267.0326-.1236.0861-.3078.1539-.5581.3787-1.3898.8393-2.3463,1.3756-2.8687.2393-.2296.5072-.417.7957-.5576.292-.1408.6018-.2352.938-.2806,1.0698-.1443,2.0055.142,2.8137.8575.8053.7189,1.2934,1.7101,1.4641,2.9735.0924.6846.0518,1.4188-.1211,2.2028-.1729.7844-.252,1.2102-.2429,1.2759.0255.1908.1004.3144.2251.3787.1244.0615.3424.0845.6508.0661l.0621.4595-3.7304.5034-.053-.3937c.8648-.2824,1.5293-.8017,1.9896-1.5665.4635-.7625.6313-1.6041.5066-2.5279-.0783-.5791-.2721-1.0264-.5845-1.3411-.3127-.3152-.6846-.445-1.1121-.3875-.6247.0845-1.144.9068-1.5579,2.4639-.0235.0845-.0414.148-.0519.1956-.3021,1.1183-.5451,1.9001-.7251,2.3545-.18.451-.371.7991-.5765,1.0417-.3073.3694-.6568.6636-1.0508.8853-.3915.2182-.8255.3611-1.2989.4249-1.135.153-2.1177-.1352-2.9449-.8657-.8277-.7305-1.3294-1.7575-1.5083-3.0836-.1015-.7528-.076-1.5522.0771-2.3975.1531-.8456.2251-1.3022.2163-1.3677-.0264-.1942-.1159-.3444-.267-.4519-.1508-.1074-.3495-.1561-.5979-.1459l-.0623-.4621h0ZM23.5057,164.9846l3.4325-.7923.8039,3.4824-3.4322.7926c-.5831.1346-1.0236.121-1.3173-.0386-.2939-.1598-.5159-.5071-.6695-1.0448l-.4207.0972,1.4956,6.4775.4207-.0973c-.1049-.5309-.0599-.9371.1374-1.2192.1982-.282.5902-.4906,1.173-.6253l7.2683-1.6778c.5862-.1352,1.027-.1191,1.3247.0456.2953.1653.5139.5106.6536,1.0395l.4289-.0989-1.4953-6.4775-.4206.0972c.0963.5446.049.9545-.1443,1.2294-.1936.2753-.5803.4797-1.1665.6149l-2.9948.6916-.8039-3.4826,2.9948-.6914c.5859-.1355,1.0233-.121,1.3178.0411.2943.1624.5165.51.6687,1.0417l.4207-.0969-1.4953-6.4772-.4206.097c.1003.5377.0527.9448-.1403,1.2226-.1956.2783-.5846.4864-1.1705.6216l-7.2683,1.6778c-.5831.1347-1.0267.1191-1.3277-.0448-.3005-.1638-.5191-.5094-.6588-1.038l-.4207.0969,1.4953,6.4772.4207-.0969c-.0975-.5503-.0502-.9601.1437-1.2326.1942-.2718.5839-.477,1.167-.6117h0ZM24.0352,175.3705l.4105-.1338c.1859.5142.4342.8391.748.9757.3141.1366.7546.1139,1.3264-.0726l7.0971-2.315c.5692-.1857.9382-.4272,1.1055-.7209.1706-.2948.1794-.7036.0317-1.2302l.4105-.1338,3.1861,9.767-3.0367.9907-.1287-.394c.8217-.4042,1.3371-.875,1.5443-1.4091.21-.5346.1559-1.2858-.1593-2.2513l-.5156-1.5814-4.3501,1.419.0595.1834c.1993.61.5253,1.006.976,1.192.4504.1828,1.1013.1825,1.9534-.0077l.1338.4105-5.3516,1.7456-.1338-.4102c.8113-.3523,1.3445-.7413,1.5982-1.1602.254-.4187.2764-.9437.0703-1.5758l-.0445-.1366-3.4447,1.1236c-.5388.1761-.8404.3648-.9065.5709-.0666.2038.0088.6392.2248,1.3014.3382,1.0366.813,1.7595,1.4256,2.1713.6154.4108,1.4669.5809,2.5548.5106l.15.4595-3.7381.5113-3.1969-9.7999h0ZM37.3164,184.3804l-6.5948,3.4855c-.529.2795-.9621.3781-1.2949.2971-.3325-.0814-.6324-.3595-.9028-.8346l-.3818.2019,1.775,3.3582.3816-.2019c-.2328-.5017-.292-.9096-.1755-1.2251.1162-.3155.4405-.6137.9694-.8935l6.3176-3.3389-4.6383,11.0608.6145,1.163,8.4725-4.4781c.5289-.2795.9621-.3782,1.292-.2954.3277.0839.6302.36.9057.8328l.3818-.2018-1.775-3.3582-.3892.2058c.2353.5068.2948.915.182,1.2251-.1151.3115-.4394.61-.9684.8895l-4.1346,2.1853,3.4115-8.0981-2.2725-4.2998-.3818.2018c.2352.4938.2934.8994.178,1.2175-.1174.3192-.4428.6213-.972.9011h0ZM43.8253,204.0251l-2.8534,1.8467c-.5048.3269-.8013.6526-.8912.9743-.0898.3223.0054.7237.2846,1.2076l-.3625.2347-3.6119-5.5806.3625-.2347c.3116.4496.6344.6999.9729.7518.3387.0515.7614-.0848,1.2659-.4116l2.2711-1.4698,2.8044-5.37c.2395-.4566.3679-.8243.3832-1.1083.0128-.2823-.066-.5573-.2364-.8206l.3625-.2345,3.3429,5.1651-.3625.2347c-.1718-.2659-.3268-.4363-.4703-.5148-.1409-.0802-.2815-.0751-.424.017-.0505.0329-.1015.0762-.1511.1324-.0468.0544-.0924.1216-.1327.2024l-2.2858,4.1533,4.3959-.3634c.1123-.0009.2223-.0167.3232-.0513.1026-.0323.1973-.0766.2817-.1313.1596-.1031.2296-.265.207-.4799-.0224-.2151-.1364-.4807-.3379-.7925l-.0502-.0774.3626-.2344,1.8028,2.7856-.3626.2344-.0499-.0771c-.119-.184-.2888-.3138-.511-.3926-.2209-.0765-.4967-.1004-.834-.0703l-5.4958.4751h0ZM44.0291,210.5425l1.8439-.5496,1.8735,2.429-1.1943,1.8771c-.0507.0898-.1083.1703-.1735.2466-.0629.074-.1306.1369-.2012.1913-.2007.1548-.3861.1925-.5567.1168-.1704-.0794-.4417-.3606-.8161-.8461l-.3419.2636,3.7752,4.8949.3418-.2637c-.1581-.2052-.2324-.4096-.2242-.6157.0082-.206.1179-.4833.3277-.8382l5.6821-9.5065-.7872-1.0208-10.4902,2.9951c-.4087.1154-.7472.1477-1.0196.0961-.2719-.0558-.4944-.1933-.6698-.4209l-.3419.2636,2.1617,2.8026.3419-.2636-.0984-.1273c-.2461-.3192-.373-.5919-.3767-.8181-.0051-.2284.1117-.4348.3464-.6159.0705-.0547.1573-.1072.2559-.1537.0981-.0468.2126-.0915.3416-.1366h0ZM46.6177,209.7709l3.3973-.9995-1.8646,2.9866-1.5327-1.9871h0ZM56.8221,214.2284c.4312-.415.6602-.7957.6846-1.135.0227-.3376-.1454-.7112-.5082-1.1205l.3109-.2997,3.3744,3.5025-1.0358,8.7262,3.3678-3.2448c.4309-.4153.66-.7917.6843-1.1228.0227-.3294-.1477-.705-.5139-1.1271l.3169-.3053,2.6354,2.7355-.311.2996c-.3957-.3779-.7628-.5599-1.1009-.5497-.3399.0119-.7285.2265-1.1597.6418l-6.9012,6.649-.9125-.9474,1.3941-11.9126-5.1458,4.9578c-.4308.4153-.6599.7917-.6842,1.1271-.0247.3353.1451.7109.5079,1.1284l-.3109.2997-2.6354-2.7355.311-.2996c.3914.3818.7565.5658,1.0987.5519.3421-.0142.7307-.2287,1.1619-.644l5.3716-5.1755h0ZM65.6779,234.3572c-.2047-.057-.3975-.1298-.5726-.2149-.1775-.0867-.3402-.1873-.4921-.3013-.7305-.5839-1.0015-1.3649-.8141-2.3459.1859-.9788.8288-2.1561,1.927-3.5295,1.0567-1.3215,2.099-2.1642,3.1249-2.5304,1.0261-.366,1.9448-.2248,2.7561.424.6497.5193,1.0406,1.1823,1.1713,1.9865.1346.8042-.0102,1.6353-.4374,2.4917l.3104.2477,2.34-2.9262-.2968-.2372c-.15.1598-.3073.2554-.474.284-.1689.0272-.3231-.015-.4694-.1318-.1213-.0972-.2676-.3101-.4413-.637-.0919-.18-.1681-.3149-.2254-.4047-.2579-.4238-.5173-.7858-.7798-1.0843-.2608-.3007-.5471-.574-.8572-.822-.5845-.4672-1.1999-.8266-1.8465-1.082-.6446-.2537-1.3184-.402-2.0191-.4428-.8915-.0459-1.7419.1324-2.5509.5358-.807.4011-1.5324,1.004-2.1739,1.8065-1.1971,1.4967-1.7022,3.0455-1.5137,4.6482.1905,1.6005,1.0412,3.0065,2.556,4.218.5372.4294,1.1693.8093,1.9023,1.1415.7311.3342,1.5787.6247,2.5444.8776l1.6158-2.0208c.3362-.4201.6508-.6662.9436-.7373.2931-.0717.6256.0099.9995.2426l.2804-.3506-4.6455-3.7148-.2738.356c.3952.3677.6038.6965.6287.9927.025.2962-.1411.6647-.4915,1.103l-1.7254,2.1577h0ZM79.5917,242.4155c-.1017.091-.1902.1763-.263.2571-.0732.0811-.1327.1627-.1772.2404-.1471.2574-.1755.493-.0831.7019.0905.2072.3127.4104.6625.6103l.1398.0799-.2143.3747-3.0731-1.7563.214-.3747c.25.1425.508.1839.7804.1312.2713-.0573.5715-.2171.9045-.481l8.5323-6.7978,1.1191.6398-1.5905,10.9604c-.0572.4082-.0518.7064.0196.8997.0717.1934.2188.3535.4439.4822l-.2143.3748-5.3668-3.0671.2143-.3751c.532.3045.8906.4595,1.0785.4675.1868.0039.3433-.1021.4692-.322.0439-.0771.0825-.1616.1119-.254.0309-.0953.0533-.1919.0655-.2943l.381-2.1917-2.6634-1.5222-1.4908,1.2163h0ZM81.6845,240.7077l2.1788,1.2452.5734-3.4738-2.7522,2.2286h0ZM87.5644,249.2649l9.6177,3.7088,1.9639-3.2213-.451-.1737c-.6324.8878-1.3023,1.4408-2.0092,1.6585-.7061.2152-1.5665.127-2.5838-.2656-.65-.2506-1.0352-.4671-1.1512-.6471-.1179-.1814-.0742-.5346.1299-1.0636l1.3036-3.3806.1341.0516c.6202.2393,1.0131.5882,1.1775,1.0497.1647.4612.1296,1.1199-.1097,1.9718l.4028.1553,2.0257-5.252-.4029-.1554c-.3906.781-.8013,1.2858-1.2274,1.5194-.4288.2322-.9419.235-1.5406.004l-.18-.0692,1.6464-4.2693,1.5519.5984c.9477.3654,1.5645.7977,1.8465,1.298.2832.4981.3229,1.1948.1174,2.0875l.3866.1491,1.1495-2.9804-9.5854-3.6967-.1553.4028c.5014.218.813.4831.9337.8014.1222.3152.0763.7537-.1392,1.3124l-2.6861,6.9651c-.2163.5612-.4768.917-.7812,1.0743-.3042.157-.7129.1445-1.2288-.036l-.1554.4028h0ZM106.0968,249.6172l.2183.0632c.6967.2013,1.2668.1565,1.7166-.1357.4493-.2897.7923-.8436,1.0281-1.6592.2455-.8486.2452-1.5105-.0019-1.9924-.2472-.4819-.7705-.8371-1.575-1.0695l-1.3861,4.7936h0ZM104.9992,253.4128c-.1735.6001-.1808,1.0503-.0232,1.3536.161.3038.523.5437,1.095.7208l-.1117.417-6.4939-1.8777.1199-.4147c.5298.1352.938.1125,1.2277-.0703.2894-.1831.519-.5629.6863-1.1406l2.0713-7.1632c.1669-.5777.1746-1.0188.0266-1.3252-.1488-.3039-.481-.5434-.9998-.7174l.1199-.4148,6.2258,1.8003c1.5176.4388,2.5988,1.0301,3.2428,1.7765.6449.7438.8232,1.607.5394,2.5886-.1919.6636-.5578,1.1835-1.0981,1.5608-.5369.3747-1.1897.5607-1.9588.557l1.1141,4.5399c.1148.4944.2537.8521.4161,1.067.1621.2177.39.3824.6778.4955l-.12.4147-4.166-1.2047-1.3255-5.9732-.3648-.1054-.9009,3.1155h0ZM119.4585,258.427c.8453.144,1.5556-.1703,2.1279-.9425.5718-.7699,1.0009-1.9871,1.2841-3.6493.3237-1.9009.3561-3.3259.0947-4.2752-.2585-.9519-.8305-1.5018-1.7155-1.6526-.8598-.1466-1.5716.1763-2.1413.9694-.5669.7909-1.0018,2.0773-1.3048,3.856-.301,1.7674-.3158,3.1224-.0437,4.062.2744.9428.8388,1.4857,1.6986,1.6322h0ZM126.6888,254.2456c-.3141,1.8443-1.1344,3.2168-2.4639,4.1142-1.3263.8981-2.9625,1.1801-4.8997.8502-1.9349-.3294-3.38-1.1362-4.3288-2.4217-.9515-1.2861-1.2687-2.8522-.9547-4.6961.3161-1.8553,1.1339-3.231,2.4512-4.1247,1.3198-.8935,2.9494-1.1736,4.8903-.8431,1.9431.3308,3.3942,1.1356,4.3495,2.4166.9527,1.2801,1.2719,2.8494.9561,4.7046h0ZM128.1373,260.4116l.3229-4.2529.4305.0329c.0638,1.0236.4615,1.9024,1.1971,2.6306s1.6109,1.1324,2.6328,1.2101c.6568.0496,1.1997-.0621,1.6274-.3382.4306-.2732.6639-.6508.7004-1.1333.0565-.7401-.8421-1.5993-2.6957-2.5798-.0167-.0068-.0249-.0105-.0249-.0105-.1143-.0578-.2832-.1485-.514-.267-1.2804-.6599-2.12-1.3096-2.5188-1.9432-.1749-.2817-.3022-.5828-.3796-.8946-.0771-.3146-.1046-.6372-.0791-.9756.0819-1.0764.5567-1.9319,1.425-2.5731.8711-.638,1.9423-.9087,3.2134-.8124.6888.0525,1.3986.2449,2.1293.5775.7311.3325,1.1308.4986,1.1971.5037.1922.0144.3285-.0329.4176-.1415.0861-.1088.1539-.3172.2001-.6228l.462.0352-.2849,3.7534-.396-.0301c-.0958-.9048-.4654-1.6631-1.1174-2.2725-.6491-.6123-1.4374-.9519-2.3669-1.0225-.5825-.0442-1.0604.0525-1.4335.2923-.3733.2401-.578.5768-.6106,1.0071-.0476.6285.6483,1.3076,2.0852,2.037.0777.0405.1358.0711.1803.0915,1.0309.5287,1.745.9292,2.1518,1.1997.4036.2704.7041.5298.8985.7812.2974.3773.5123.7807.6469,1.2121.1321.4286.1811.8827.1449,1.3589-.0868,1.1421-.5735,2.043-1.4604,2.7-.8867.6574-1.9956.9338-3.3302.8326-.7574-.0576-1.5338-.2492-2.3287-.5752-.7951-.326-1.2268-.4915-1.2925-.4963-.1954-.0151-.3612.0416-.4978.1666-.1366.1253-.2257.3093-.2673.5545l-.4649-.0354h0ZM144.4294,254.4806l.161-.0028c.6273-.0111,1.0843-.2262,1.3731-.6486.2863-.4195.4218-1.0726.4065-1.9528-.0144-.826-.1865-1.4332-.5156-1.8218s-.8328-.5754-1.512-.5635l.087,4.9895h0ZM144.4983,258.431c.0111.6301.1423,1.0681.394,1.3141.252.2461.6886.3623,1.313.3512l.0664-.0011.0073.4317-6.8882.1202-.0076-.4317c.5462-.0266.9295-.1687,1.1526-.4286.2228-.2602.3302-.6911.3197-1.292l-.1301-7.4554c-.0105-.6015-.133-1.0282-.3648-1.2776-.2316-.246-.6197-.3776-1.1665-.3909l-.0076-.4289,6.3904-.1114c1.4675-.0255,2.5858.2197,3.3573.7387.7719.5159,1.1654,1.2864,1.1832,2.3077.0182,1.0502-.362,1.857-1.1438,2.4148-.7789.5576-1.9338.851-3.4616.8777l-1.0701.0187.0564,3.2428h0ZM151.9996,258.1195l.4445-1.872,3.0402-.4105,1.0298,1.9721c.0524.0887.0935.1788.127.2735.0326.0913.0533.1814.0652.2696.034.2511-.0261.4306-.1766.5408-.1539.108-.5332.2027-1.1407.2846l.0576.4278,6.1262-.8266-.0578-.4277c-.2569.0345-.4712-.0032-.6455-.1131-.1743-.1103-.3597-.3439-.5624-.7025l-5.3994-9.6701-1.2776.1724-2.643,10.584c-.104.4121-.2452.7214-.4258.9317-.1842.2075-.4144.3317-.6993.3702l.0576.4278,3.5078-.4734-.0578-.428-.1596.0215c-.3991.0541-.699.0278-.8969-.0819-.2004-.1097-.3208-.3138-.3605-.6078-.0119-.0884-.0142-.1896-.0054-.2985.0085-.1082.0272-.2299.0524-.3639h0ZM152.6235,255.4912l.8306-3.4427,1.6563,3.1071-2.4869.3356h0ZM172.8144,253.6861c-.3498,1.0051-.8889,1.8297-1.6166,2.4763-.7279.6466-1.6149,1.0908-2.6634,1.3329-.7767.1794-1.527.2168-2.2547.11-.7248-.1075-1.4116-.3564-2.0548-.7512-.7138-.417-1.3096-.9766-1.7895-1.6747-.4785-.7019-.8255-1.5137-1.0389-2.439-.4037-1.7469-.1877-3.2941.6511-4.6372.8382-1.3453,2.122-2.2178,3.8523-2.6172.7373-.1703,1.4944-.218,2.2685-.14.7736.0754,1.1855.1074,1.2331.0964.1653-.038.2818-.1092.3481-.2192.0669-.1071.1072-.2905.1159-.5465l.4374-.1012.847,3.6678-.4374.1009c-.3639-.8728-.8699-1.5032-1.5156-1.8828-.6466-.3821-1.3723-.4805-2.1771-.2948-.9728.2248-1.6165.8136-1.9284,1.7657-.3152.9499-.2846,2.2337.0882,3.8486.3898,1.688.9343,2.9061,1.6313,3.6607.6991.7512,1.5313,1.017,2.5013.7928.6115-.1411,1.1631-.4518,1.6484-.9329.4855-.4813.8835-1.1106,1.2004-1.887l.6534.2716h0ZM174.9251,255.4407l9.8119-3.1603-.4975-3.7398-.4601.1483c.0663,1.0882-.1069,1.9392-.5201,2.5529-.4139.6108-1.1384,1.0831-2.1765,1.4176-.663.2134-1.0987.2871-1.3022.2199-.2058-.0669-.3938-.369-.5675-.9087l-1.1109-3.4487.1369-.0442c.6327-.2038,1.1577-.1791,1.5755.0763.4178.2551.8047.7897,1.154,1.6024l.411-.1324-1.7257-5.358-.4111.1323c.1871.853.1851,1.5038.0006,1.9534-.1876.4501-.5851.7747-1.1959.9714l-.1834.0593-1.4029-4.3555,1.5832-.5099c.9669-.3115,1.7183-.3629,2.2521-.1508.5332.2089,1.002.7262,1.4031,1.5494l.3946-.127-.9794-3.0404-9.7789,3.1495.1324.4111c.5272-.1457.936-.1353,1.2299.0362.2931.1684.5332.5386.7169,1.1084l2.2887,7.1056c.1845.5723.2055,1.0131.0675,1.3266-.1378.3132-.4635.5604-.9786.7444l.1324.4107h0ZM201.5453,238.7143l-2.6173-4.6295c-.2987-.5287-.6074-.8464-.9224-.953-.3132-.1038-.7143-.0357-1.2044.2083l-.2126-.3758,3.2919-1.861.2123.3759c-.4646.2891-.7322.5989-.8067.9289-.0735.3322.0374.7622.3333,1.2858l2.6002,4.5995c.4065.7189.6684,1.3116.7852,1.781.1165.4697.131.9275.0493,1.3737-.1193.5899-.4124,1.1588-.881,1.7047-.4708.5471-1.0876,1.035-1.8516,1.4667-1.3603.769-2.5455,1.0355-3.5611.7999-1.016-.2358-1.8746-.9768-2.5798-2.2243l-2.7533-4.8702c-.2957-.5233-.6069-.84-.9295-.9485-.3212-.1063-.7251-.0366-1.2121.2123l-.2123-.3759,5.7866-3.2712.2126.3756c-.4668.2968-.7373.6086-.8093.9369-.0722.3282.0397.7546.3357,1.2778l3.1442,5.5616c.4362.7716.9099,1.2475,1.4218,1.4275.5103.1778,1.1018.078,1.7705-.3001.7994-.4519,1.247-1.052,1.3476-1.8032.1009-.7511-.1445-1.6537-.7378-2.7034h0ZM202.5263,231.5852l4.286,6.105c.3439.4898.4961.9071.4572,1.2472-.0388.3402-.2769.6727-.7143,1.0007l.2481.3534,3.1087-2.1826-.248-.3532c-.4686.2939-.866.4039-1.1934.3279-.3277-.0757-.6645-.36-1.0083-.8498l-4.1057-5.8482,11.5557,3.2128,1.0763-.7557-5.5063-7.8432c-.3438-.4898-.496-.9068-.4552-1.2447.0419-.3356.2781-.6701.7126-1.0031l-.2483-.3535-3.1087,2.1827.2531.3602c.4734-.297.8708-.4073,1.1925-.3345.3235.0755.6602.3595,1.0041.8493l2.6872,3.8276-8.4626-2.3677-3.9804,2.7943.2481.3532c.4606-.295.8555-.4039,1.1857-.3293.3314.0765.6721.3614,1.0159.8512h0ZM221.1749,226.0871c.4113.4349.7855.667,1.1208.6945.3351.0275.7124-.1389,1.1333-.4978l.2968.3136-4.8291,4.5688-.2965-.3135c.3858-.3968.5729-.7639.5638-1.1001-.011-.3382-.2242-.7268-.6355-1.1616l-5.1265-5.4185c-.4113-.4345-.7897-.667-1.1287-.6947-.3374-.0258-.7127.1391-1.1257.4983l-.2965-.3138,4.8288-4.5689.3025.3198c-.3855.4048-.5729.7721-.5658,1.1021.0091.3322.2203.7188.6316,1.1534l5.1267,5.4184h0ZM229.1113,221.4661l.5108-.5392-4.5133-10.1715c-.1735-.3904-.2525-.7546-.2415-1.0925.0133-.3404.1154-.6202.309-.8413l-.3135-.2968-2.4001,2.5347.3132.2968c.3118-.2956.5817-.4759.8119-.5391.2304-.0632.4354-.0119.6108.1542.0649.0612.1279.1369.1894.227.0618.0899.1236.2002.1822.3348l2.4418,5.4238-5.8153-2.2927c-.1278-.0575-.2245-.1057-.2846-.1428-.064-.0369-.1182-.0763-.1618-.1177-.159-.1505-.2206-.3157-.1806-.4957.0377-.178.1823-.402.4334-.6673l.0695-.0734-.3195-.3028-4.1774,4.4113.3135.2968c.248-.237.5049-.3699.7668-.3997.2639-.0272.6508.0539,1.1608.2514l10.2945,4.0417h0ZM234.3781,215.2469l-.354-.2469c.2985-.4581.4082-.8518.3282-1.1849-.0802-.3331-.3634-.671-.8569-1.0151l-6.1225-4.2707c-.491-.3424-.9063-.4918-1.2416-.4484-.3379.0414-.6696.2806-1.0009.7157l-.3541-.2471,5.8774-8.4263,2.62,1.8275-.2369.3399c-.8178-.4122-1.5041-.5403-2.0552-.3841-.553.1544-1.1199.6502-1.701,1.4833l-.9516,1.3643,3.7528,2.6176.1102-.1579c.3671-.5264.487-1.0253.3637-1.4973-.125-.4694-.5173-.989-1.1826-1.5545l.2472-.3541,4.6168,3.2205-.2469.354c-.7702-.4354-1.4015-.6267-1.8887-.5771-.4873.0496-.9199.3478-1.3003.8932l-.0822.1176,2.9718,2.073c.4649.3243.7974.4513,1.0018.3798.2027-.0694.5049-.392.9034-.9632.6239-.8943.9147-1.709.8745-2.446-.0428-.7384-.4198-1.5208-1.1313-2.3468l.2766-.3966,2.6595,2.676-5.8972,8.4546h0ZM238.9983,197.2659l.1125-.1973c.36-.6296.4505-1.1943.2727-1.7005-.176-.5046-.6332-.9686-1.3705-1.3899-.7671-.4385-1.4105-.5938-1.9372-.4671-.5264.1264-.9947.5516-1.41,1.2787l4.3325,2.4761h0ZM242.4288,199.2263l-2.8162-1.6092.1885-.33,6.1174.1188,2.1518-3.7653-.3747-.2143c-.1778.2532-.3915.436-.6412.542-.2469.1072-.6273.1582-1.135.1531l-4.6746.0136c.1848-.7464.1579-1.4247-.08-2.0347-.2395-.614-.6587-1.0922-1.2583-1.4349-.8872-.5068-1.7682-.5366-2.6427-.0851-.8773.4499-1.7065,1.3615-2.4903,2.7332l-3.2156,5.6265.3748.2143c.2911-.4632.6023-.7296.9328-.8025.3326-.072.7592.0394,1.2816.3379l6.4738,3.6998c.5221.2985.8373.6111.947.9357.1094.3243.0352.7265-.2208,1.2095l.3747.2143,3.3543-5.8691-.379-.2066c-.307.5139-.6251.8095-.9587.8943-.3317.0819-.7676-.0315-1.3096-.3413h0ZM248.9275,192.2423l-3.8778-1.7756.1797-.3926c.9825.2948,1.9446.2259,2.8826-.212.938-.438,1.6203-1.1192,2.0469-2.0506.2741-.599.3571-1.1469.2463-1.6438-.1071-.4987-.3807-.8485-.8203-1.0497-.675-.309-1.7921.2361-3.354,1.6356-.0122.0133-.0184.0198-.0184.0198-.0938.087-.2376.2143-.4283.3898-1.0627.9723-1.963,1.5349-2.6955,1.69-.3249.0663-.6511.0816-.9706.0462-.322-.0368-.6341-.1225-.9425-.2639-.9816-.4493-1.6197-1.1911-1.9205-2.2277-.297-1.0381-.1803-2.1368.3507-3.2959.2874-.6279.714-1.2271,1.279-1.7977.5652-.5704.8594-.8881.8869-.9485.0802-.1752.0831-.3195.0119-.4405-.0723-.1188-.244-.2546-.5147-.4037l.193-.4212,3.4223,1.567-.1653.3611c-.8821-.2233-1.7212-.1391-2.5189.2614-.799.3971-1.3906,1.0188-1.7787,1.8663-.2432.5312-.318,1.0131-.2222,1.446.0958.4334.341.7421.733.9215.5734.2625,1.4516-.1553,2.6334-1.2506.0649-.0587.1137-.1029.1482-.1375.853-.7838,1.476-1.315,1.8706-1.603.3935-.2852.7407-.4773,1.044-.5726.4572-.1482.9097-.21,1.3612-.1871.4476.0247.8907.1358,1.3249.3348,1.0415.4768,1.7181,1.2455,2.0274,2.3048.3092,1.0596.1848,2.1958-.3725,3.4127-.3161.6905-.7648,1.3524-1.3459,1.9854-.5811.6329-.8858.9807-.9133,1.0406-.0817.1783-.0859.3532-.0159.5247.0703.1714.212.3188.4275.4427l-.1942.4238h0ZM252.7305,176.1931l-7.064-2.3961c-.5666-.1922-.934-.4354-1.0973-.7248-.1604-.2886-.1664-.7008-.0144-1.2388l-.417-.1414-2.1353,6.2954.409.1389c.1973-.5105.4518-.8317.7622-.9663.3127-.1341.756-.1052,1.3227.087l7.0639,2.3962c.5667.1921.9369.4362,1.1044.7302.1653.2931.1712.7049.0153,1.2359l.409.1386,2.1354-6.2955-.4091-.1386c-.2043.5139-.4603.8376-.7693.9697-.3092.1324-.7486.1018-1.3155-.0904h0ZM246.8945,160.8577l2.946.6718-.0921.4039c-.8141-.1057-1.4312-.0133-1.8598.2727-.4246.2838-.7251.8116-.8997,1.5778l-.169.7407,8.6168,1.9644c.5862.1338,1.0264.119,1.3198-.0414s.5145-.5085.6664-1.0466l.421.0961-1.4777,6.4815-.421-.0961c.1035-.5315.0573-.9375-.1411-1.2187-.1985-.2814-.5911-.4892-1.1773-.6227l-8.6167-1.9647-.169.741c-.1746.7659-.1312,1.3663.129,1.8031.2634.4379.7804.786,1.5599,1.0437l-.0961.4204-2.946-.6716,2.4066-10.5553h0ZM254.2799,153.1299l3.3681.4544c.5958.0805,1.033.0263,1.3107-.1596.2778-.1863.4666-.5528.5698-1.1021l.4278.0575-.889,6.588-.4277-.0578c.0558-.5443-.0267-.9442-.2498-1.2039-.2236-.2597-.6332-.4309-1.2291-.5114l-2.6807-.3617-5.6239,2.2524c-.4788.1908-.8158.3864-1.0123.5922-.1933.2061-.3126.466-.3543.7767l-.428-.0576.8229-6.0973.4277.0576c-.0422.3138-.0354.5442.0221.697.055.1525.165.2401.3334.2628.0598.0082.1267.0082.2007-.002.0708-.0108.1493-.0323.2324-.0672l4.4385-1.6662-3.5742-2.5846c-.0859-.0726-.1797-.1318-.2789-.1712-.099-.0426-.1996-.0706-.2994-.0839-.1882-.0256-.3467.0518-.4694.2296-.123.178-.2095.4538-.2591.8217l-.0122.0913-.428-.0575.4439-3.2885.4277.0575-.0121.0916c-.0295.2168.015.426.1323.6304.1182.2018.3121.3994.5877.5961l4.4824,3.2157Z" fill="#002c61" fill-rule="evenodd" stroke-width="0"/><path d="M117.3886,213.4231l.0077-9.6265c.0552-1.1001.4226-1.3076,1.3929-1.3156.7129-.0059,1.0902.4468,1.1358,1.2011v9.741c-.0456.7999-.4668,1.2013-1.2696,1.2013-.8427,0-1.2668-.4014-1.2668-1.2013h0ZM128.5985,210.1553v-.0683c-.3558.1338-.7118.2021-1.0675.2021-2.1804-.1795-3.3818-1.446-3.6037-3.803.2219-2.5364,1.6452-3.9367,4.2698-4.2043,2.6671.1791,4.1134,1.5797,4.3353,4.2043-.1766,2.3995-1.6225,5.0012-4.3353,7.8052-.1794.1763-.3557.2874-.5352.3331-.2219.0453-.3985.0655-.5323.0655-.7572-.0882-1.1557-.4669-1.2013-1.133,0-.1795.1111-.4014.333-.6662.3133-.3557.669-.7571,1.0676-1.2013.6233-.7115,1.0448-1.2237,1.2696-1.5341h0ZM128.1971,208.285c1.0219-.0425,1.5798-.6432,1.6682-1.7989-.0884-1.0675-.6463-1.6483-1.6682-1.7365-1.0219.0882-1.5571.669-1.6027,1.7365.0456,1.1557.5808,1.7564,1.6027,1.7989h0ZM139.606,204.8179l-.2676,1.7992c.4014-.0428.8226-.0885,1.2696-.131,2.1776.1763,3.3563,1.3777,3.5354,3.6009-.0881,3.0259-1.5797,4.5601-4.4719,4.6029-2.3996-.1766-3.6692-.8881-3.8002-2.1351.0428-.7115.4442-1.11,1.1985-1.1982.1795,0,.4896.1536.9366.4669.6659.4439,1.2212.6658,1.6651.6658,1.0675-.0453,1.6682-.7999,1.802-2.2685-.0428-1.1132-.578-1.6909-1.5999-1.7337-.3558,0-.7345.1111-1.1359.3331-.3101.1766-.6003.2676-.8651.2676-.578,0-.9139-.2676-1.002-.8028v-.6007l.4668-3.6008c.0882-1.1557.5352-1.6909,1.3349-1.6025h4.0705c.7546.0454,1.1787.4014,1.2668,1.0673-.0453.8456-.4439,1.2696-1.2013,1.2696h-3.2023ZM151.9486,212.3555h3.0688c.8453.0457,1.2895.4244,1.3348,1.1359-.0453.7543-.4439,1.133-1.201,1.133h-5.7359c-.8453,0-1.2697-.3787-1.2697-1.133-.0425-.2248.0684-.5122.3331-.8683.3558-.4014.7118-.7996,1.0675-1.2013,1.469-1.5568,2.5362-2.8463,3.2023-3.8684.4014-.5349.6007-1.0673.6007-1.6025-.0882-.7999-.4867-1.2438-1.1985-1.3351-.7115,0-1.224.5125-1.5369,1.5344-.2648.8453-.6435,1.2467-1.133,1.201-.8453,0-1.2668-.3982-1.2668-1.201.2219-2.266,1.557-3.5583,4.0022-3.8684,2.4026.1791,3.6692,1.3578,3.803,3.5353,0,1.2467-1.0018,3.0031-3.0031,5.2719-.5323.6233-.8881,1.0446-1.0675,1.2665Z" fill="#002c61" fill-rule="evenodd" stroke-width="0"/><path d="M139.642,54.2359c48.0968,0,87.1016,39.0047,87.1016,87.1016s-39.0048,87.1015-87.1016,87.1015-87.1016-39.005-87.1016-87.1015,39.0047-87.1016,87.1016-87.1016h0ZM85.7636,131.7637c.5519-4.8608,1.5508-9.6916,2.986-14.483-.0879-.5335-1.4989-2.5793-2.2011-2.4041-1.7371,5.4397-2.914,10.9035-3.5388,16.3729.0369.2784,2.5507.737,2.7539.5142h0ZM94.2015,184.3172l-.0045.0006c-7.7919,1.6211-15.5146,3.6958-23.1673,6.2285,13.1187,18.2571,33.3436,31.0669,56.6226,34.3778-1.7277-1.5285-3.4073-3.0663-5.0383-4.6123-.6253-1.5449-.0281-2.1387,1.7915-1.7813,2.389,2.3029,4.8915,4.5998,7.5084,6.8896,2.2099.2007,4.4447.3161,6.7008.343h.0026v-6.1526c0-1.8215,2.4185-1.5607,2.27.1344v6.0145s.009.0003.009.0006h.0009c1.9916-.0289,3.9671-.127,5.923-.2917,2.7297-2.2994,5.3385-4.6205,7.8264-6.961,1.8156-.4836,2.3451.1771,1.9948,1.6211-1.6892,1.62-3.4271,3.2284-5.2127,4.8243,23.2453-3.2482,43.4611-15.9653,56.6232-34.126-7.916-2.361-15.7737-4.3424-23.5729-5.9395l-.0091.0023c-3.1507,5.705-6.8825,11.3287-11.1634,16.85-1.2586.544-1.9953.2265-1.5837-1.986,3.8906-5.0782,7.2598-10.2169,10.1123-15.3943h-.0045c-7.1399-1.3851-14.2305-2.4466-21.2709-3.1819-.3546-1.63-.1038-2.7332,1.4785-2.6791,7.0365.785,14.0916,1.8882,21.1641,3.2942l.0167-.0261c.2772-.5366.5488-1.0738.815-1.6112,1.3169-1.0301,3.276-1.0837,3.1371-.4686-.4269.8785-.8677,1.755-1.3221,2.6294l-.006.0151c7.939,1.6616,15.9007,3.7017,23.8839,6.0984,8.8574-13.1542,14.1097-28.9366,14.3391-45.9295l-18.476-.0002c-.5099-.1182-1.368-2.1345-.885-2.2791l19.3618.0258c-.2163-17.0821-5.5086-32.9434-14.4368-46.1446-2.5779.8229-5.1565,1.6001-7.7355,2.3323.2835-1.0865.9777-2.1172,2.0123-3.1017,1.4207-.428,2.8406-.8702,4.2591-1.3266-13.3634-18.5275-33.8568-30.9486-56.3494-34.2255,9.7861,8.4711,19.0191,18.1698,26.5382,28.9188.0618.6863-1.3362,1.2875-2.3572.7704-7.3871-10.5669-17.0482-20.717-28.9285-30.2417-1.9763-.1723-3.9719-.2763-5.9845-.3101-.0629-.0011-.1255-.0022-.1882-.0031l-.009.0023v25.1705c-.9956.1834-1.738-.0485-2.2389-.6772.0488-8.166-.0252-16.3321-.0311-24.4981l-.0006-.0003c-2.1813,0-4.3441.0881-6.4845.2605-15.7062,13.1785-27.6713,27.1474-35.5811,41.6177l.006.0017c13.9532,2.8049,27.9969,4.2185,42.0582,4.2556l.0022-17.9515c.199-.4102,2.0589.36,2.2698.9612l.0116,16.9841c2.3082-.0184,4.617-.074,6.9259-.1664.07.4468-1.4077,1.9948-2.4282,2.4815-1.5018.049-3.0016.0824-4.4986.1009l-.0107,3.562c-.1786.8529-2.0849,2.1838-2.2698,1.9573l-.0107-5.5032c-14.7532.0284-29.2555-1.4187-43.3242-4.2896l-.0008.0011c-1.808,3.5186-2.8381,5.6497-4.1633,9.2214-.4751.1706-2.245-1.4057-2.001-2.6484,1.1285-2.8724,1.8763-4.32,3.322-7.1728l-.0023-.0026c-2.3431-.5122-2.7507-.5791-5.0683-1.1707-.1576-1.0856.4416-1.8105,1.6115-2.2632,2.2059.5454,2.4919.5707,4.7032,1.0457l.0264-.0374c7.4894-13.8773,18.7707-27.4773,33.9814-40.5022-23.1001,3.1603-43.3069,16.1699-56.4744,34.4732,1.4389.4689,2.8792.9227,4.3206,1.3609.8255.5491,1.0179,2.831.6248,2.835-2.1529-.6585-4.2934-1.3522-6.4199-2.0804-8.9697,13.2857-14.3068,29.156-14.525,45.9774h26.0172c.4904-.0626,1.6877,2.107,1.4065,2.2791h-27.4141l-.0091.0002c.2285,16.9132,5.4326,32.6271,14.2146,45.7441,7.7746-2.6623,15.5756-4.8271,23.4017-6.5174l.006-.0017c-6.412-12.615-9.8864-25.4928-10.317-38.4057.2826-1.0191,1.6968.9943,2.9483,3.2876.847,11.4449,4.1786,22.9992,10.1279,34.5398l.0012.0026c2.1413-.4314,4.2843-.828,6.4292-1.1894,1.7637.0689,2.6416,2.0517,1.1923,2.6875-2.0747.3368-4.1443.705-6.209,1.105l-.0216.0079c2.9313,5.33,6.4236,10.6551,10.4896,15.9633,1.0061,2.0769-.7687,2.681-1.8141,2.0254-4.455-5.7345-8.2806-11.5526-11.4656-17.4317h0ZM192.0736,113.1041c-.758-.8203-1.516-.8671-2.2743,1.8499.5488,1.7368.8034,2.5472,1.2394,4.295.5536,1.1107,3.1277,3.8577,3.7057,3.4215-.7489-3.5686-1.4891-6.137-2.6708-9.5664h0ZM174.9271,142.4546l18.8178-.0063c-.2342,9.1044-1.9823,18.2543-5.2727,27.3428.2299.4776,2.0137.4629,3.2428-.9754,3.4155-9.7478,5.1304-19.6708,4.998-29.6742-1.9904-3.6003-2.781-3.8376-3.0262-2.5461.055,1.2061.0836,2.4137.0853,3.6221-5.9343.0008-11.8689.002-17.8033.0028-.9496.4102-1.226,1.1943-1.0417,2.2343Z" fill="#002c61" fill-rule="evenodd" stroke-width="0"/><polygon points="207.3821 36.2004 207.2069 36.2313 206.9288 36.1905 206.7539 36.2217 206.5787 36.2526 206.3007 36.2118 206.0226 36.171 205.8477 36.2019 205.6008 36.3359 205.2414 36.851 205.1291 37.232 205.0166 37.6132 204.904 37.9942 204.9355 38.1691 204.9667 38.344 204.9981 38.5189 205.0293 38.6941 205.0605 38.869 205.092 39.0439 205.1232 39.2188 205.1546 39.3937 205.289 39.6409 205.3202 39.8158 205.4548 40.0626 206.3832 40.7101 206.6612 40.7509 206.8361 40.72 207.1145 40.7608 207.2894 40.7296 207.4643 40.6987 207.7112 40.5647 207.8861 40.5335 208.1644 40.5743 208.4113 40.4402 208.73 40.2032 208.9454 39.8943 209.0579 39.5133 208.9236 39.2664 208.8921 39.0912 208.9326 38.8134 208.9015 38.6385 208.942 38.3604 208.9108 38.1855 208.9513 37.9075 208.9199 37.7326 208.8887 37.5577 208.8575 37.3825 208.8261 37.2076 208.0729 36.529 207.6602 36.2413 207.3821 36.2004" fill="#002c61" fill-rule="evenodd" stroke-width="0"/><polygon points="203.0987 41.0225 202.9235 41.0534 202.7486 41.0845 202.4297 41.3215 202.1111 41.5588 201.8642 41.6929 201.4735 42.033 201.2269 42.1671 201.0518 42.198 200.8049 42.3321 200.4862 42.5693 200.3113 42.6002 200.0644 42.7343 199.8175 42.8684 199.5707 43.0025 199.3958 43.0336 199.2206 43.0648 198.9425 43.0237 198.6644 42.9829 198.3863 42.9421 198.108 42.9013 197.5204 42.6444 197.2423 42.6036 196.9642 42.5628 196.789 42.5937 196.6141 42.6249 196.336 42.5841 196.058 42.543 195.7796 42.5021 195.6047 42.5333 195.4298 42.5642 195.1829 42.6983 194.8955 43.1105 194.7112 43.5943 194.7424 43.7695 194.7736 43.9444 195.1146 44.3353 195.1458 44.5102 195.177 44.6851 195.2084 44.86 195.2396 45.0352 195.374 45.2821 195.4054 45.457 195.4366 45.6319 195.2929 45.838 195.046 45.972 194.8711 46.0032 194.6962 46.0341 194.3773 46.2714 194.1304 46.4055 193.8838 46.5395 193.7086 46.5704 193.5337 46.6016 193.2868 46.7357 193.1119 46.7666 192.865 46.9007 192.2587 47.5498 192.0121 47.6839 191.7652 47.818 191.5183 47.952 191.3431 47.9832 191.0245 48.2205 190.6339 48.5603 190.2433 48.9005 189.9966 49.0346 189.8215 49.0658 189.6466 49.0967 189.0402 49.7458 188.7936 49.8799 188.4747 50.1171 188.2278 50.2512 187.9812 50.3853 187.806 50.4165 187.5591 50.5506 187.3842 50.5815 186.8814 51.3026 186.9125 51.4775 186.9437 51.6524 187.3564 51.9404 187.7377 52.0532 188.0158 52.094 188.2941 52.1348 188.469 52.1039 188.8503 52.2168 189.0972 52.0827 189.3441 51.9486 189.591 51.8145 189.8376 51.6804 190.0128 51.6493 190.2597 51.5152 190.5066 51.3811 190.6815 51.3499 190.9284 51.2158 191.1033 51.1849 191.3502 51.0509 191.5251 51.0197 191.7003 50.9888 191.8752 50.9576 192.1941 50.7206 192.369 50.6895 192.719 50.6274 192.8939 50.5962 193.0688 50.5653 193.244 50.5341 193.4189 50.5029 193.6658 50.3689 194.2001 49.8229 194.375 49.7917 194.5502 49.7608 194.7251 49.7296 194.972 49.5956 195.1469 49.5644 195.3938 49.4303 195.6407 49.2962 195.8876 49.1621 196.1345 49.0281 196.3094 48.9972 196.4843 48.966 196.8032 48.729 197.0501 48.5949 197.225 48.5638 197.3999 48.5326 198.019 48.9643 198.0501 49.1395 198.0813 49.3144 197.9691 49.6953 197.9285 49.9734 197.9597 50.1483 197.8475 50.5293 197.5912 51.1163 197.5507 51.3941 197.3664 51.8783 197.3976 52.0532 197.4291 52.2281 197.4603 52.4033 197.4197 52.6811 197.3792 52.9592 197.1949 53.443 197.1544 53.7211 197.1139 53.9992 197.0733 54.277 197.0325 54.5551 196.992 54.8331 196.9514 55.1109 196.9109 55.389 196.9424 55.5639 196.9735 55.7388 197.0047 55.9137 197.0362 56.0889 196.9237 56.4699 196.9551 56.6448 196.9863 56.8197 196.9458 57.0977 196.9052 57.3758 196.8647 57.6536 196.8959 57.8285 196.9273 58.0037 196.8865 58.2815 196.918 58.4567 196.8775 58.7345 196.9086 58.9094 196.9401 59.0845 196.9713 59.2594 196.9307 59.5375 196.9619 59.7124 196.9934 59.8873 197.0246 60.0622 197.0558 60.2371 197.0872 60.4123 197.1184 60.5872 197.1499 60.7621 197.181 60.937 197.7998 61.3687 198.0782 61.4095 198.2531 61.3786 198.428 61.3474 198.6032 61.3165 198.8501 61.1825 199.0967 61.0484 199.7436 60.1212 199.7841 59.8431 199.7529 59.6682 199.7215 59.4933 199.6903 59.3184 199.6588 59.1432 199.5244 58.8963 199.4933 58.7214 199.8212 58.0315 199.7898 57.8566 199.7586 57.6814 199.9428 57.1975 199.9834 56.9194 199.9522 56.7445 199.9207 56.5696 199.8895 56.3947 199.8581 56.2196 199.8989 55.9418 199.8674 55.7666 199.8363 55.5917 199.8048 55.4168 199.6704 55.1699 199.6393 54.995 199.7515 54.614 199.7203 54.4388 199.7609 54.161 199.7297 53.9859 199.9139 53.502 200.7448 52.0909 200.7853 51.8128 200.8258 51.535 200.8664 51.2569 200.8352 51.0821 201.0914 50.495 201.132 50.2169 201.1725 49.9388 201.141 49.7639 201.1816 49.4861 201.1504 49.311 201.1192 49.1361 201.0878 48.9612 201.1283 48.6831 201.0971 48.5082 201.0656 48.3333 201.0345 48.1584 201.075 47.8803 201.1155 47.6022 201.0844 47.4273 201.0529 47.2524 201.2374 46.7683 201.4529 46.4593 201.6278 46.4281 201.8029 46.3972 201.9778 46.3661 202.2559 46.4072 202.5343 46.448 202.7092 46.4168 202.8841 46.3859 203.1624 46.4267 203.4405 46.4675 203.7186 46.5083 203.8938 46.4775 204.1404 46.3434 204.3156 46.3122 204.4905 46.281 204.8094 46.044 204.9843 46.0129 205.1592 45.982 205.4375 46.0228 205.6841 45.8887 206.331 44.9615 206.3715 44.6837 206.2372 44.4368 206.0308 44.2928 205.5464 44.108 205.2683 44.0672 204.9899 44.0263 204.7118 43.9852 204.4338 43.9444 203.7118 43.4407 203.6803 43.2658 203.6491 43.0909 203.5145 42.844 203.3801 42.5971 203.6676 42.1849 203.8113 41.9789 203.8518 41.7011 203.8206 41.5262 203.5831 41.2073 203.3767 41.0633 203.0987 41.0225" fill="#002c61" fill-rule="evenodd" stroke-width="0"/><polygon points="120.8891 16.202 120.782 16.3494 120.6748 16.4968 120.5679 16.6442 120.4809 16.9186 120.3942 17.193 120.287 17.3404 120.4081 18.1029 120.6365 18.7183 120.8242 19.0792 120.4427 19.1398 119.8264 19.3683 119.3374 19.5761 119.1033 19.7436 118.6143 19.9517 118.5072 20.0991 118.273 20.2666 117.9113 20.4543 117.5496 20.6422 117.0609 20.8503 116.6992 21.0379 116.4648 21.2055 116.2304 21.373 115.869 21.5609 115.5073 21.7486 115.1455 21.9362 114.7841 22.1242 114.4224 22.3118 114.188 22.4793 113.9054 20.7 113.7175 20.3389 113.5701 20.232 112.4246 20.414 112.0632 20.6017 111.956 20.7491 111.7216 20.9166 111.6144 21.064 111.5076 21.2114 111.4004 21.3585 111.2933 21.5059 111.1864 21.6533 111.0793 21.8007 110.9721 21.9478 110.7377 22.1154 110.6308 22.2628 110.5237 22.4102 110.4165 22.5576 110.3094 22.7047 110.2226 22.9791 110.1155 23.1265 110.0086 23.2739 109.9015 23.4213 109.7943 23.5684 109.6872 23.7158 109.5803 23.8632 109.4731 24.0106 109.366 24.1577 109.2591 24.3051 109.152 24.4525 108.9175 24.6201 108.8104 24.7675 108.5763 24.935 108.4691 25.0821 108.362 25.2295 108.2953 25.6312 108.3356 25.8852 108.3761 26.1394 108.3095 26.5411 108.2429 26.9425 108.2568 27.8524 108.2103 28.3811 108.3115 29.0166 108.5196 29.5047 108.6871 29.7389 108.8345 29.8457 108.9819 29.9526 109.1296 30.0595 109.4043 30.1462 109.8062 30.2125 110.0608 30.172 110.5497 29.9642 110.7839 29.7967 111.0183 29.6289 111.2527 29.4614 111.3596 29.3142 111.4667 29.1668 111.5538 28.8924 111.6606 28.745 111.7678 28.5976 111.8749 28.4505 111.9821 28.3031 112.089 28.1557 112.1961 28.0083 112.3033 27.8612 112.5374 27.6937 112.6445 27.5463 112.7517 27.3989 113.1134 27.2112 113.3475 27.0437 113.582 26.8762 113.8164 26.7086 113.9233 26.5612 114.0304 26.4138 114.2648 26.2463 114.499 26.0788 114.9879 25.8707 115.0951 25.7233 115.2022 25.5762 115.4364 25.4087 115.6708 25.2411 115.778 25.0937 116.0121 24.9262 116.3738 24.7383 116.8628 24.5305 117.2242 24.3426 117.3313 24.1952 117.693 24.0075 117.9272 23.84 118.1616 23.6724 118.396 23.5049 118.7575 23.317 118.9919 23.1495 119.3536 22.9618 119.9695 22.7336 120.204 22.5661 120.5657 22.3781 120.8001 22.2106 121.1615 22.023 121.6505 21.8149 122.2665 21.5867 122.5009 21.4192 122.8626 21.2312 123.3513 21.0235 123.713 20.8355 123.9474 20.668 124.3088 20.4803 124.5433 20.3128 125.0322 20.1048 125.2667 19.9372 125.6281 19.7493 125.9027 19.836 125.8767 20.4917 125.937 20.8732 126.125 21.2341 126.9088 21.24 127.0562 21.3469 127.2038 21.4538 127.9675 21.3324 128.2016 21.1649 128.4361 20.9974 128.6705 20.8299 128.7774 20.6825 128.8845 20.5351 128.9917 20.3877 129.0784 20.1133 129.1654 19.8389 129.232 19.4375 129.2584 18.7815 129.1371 18.019 128.9491 17.6579 128.8017 17.551 128.6543 17.4442 128.5069 17.3373 128.3595 17.2304 128.2118 17.1236 128.0644 17.0167 127.917 16.9098 127.5151 16.8432 125.2241 17.2075 124.0991 17.5164 123.7374 17.7044 123.6101 17.7245 123.3354 17.6378 123.188 17.5309 123.0202 17.297 122.8728 17.1902 122.7254 17.0833 122.5576 16.8492 122.4102 16.7423 122.2427 16.5084 122.095 16.4016 121.9476 16.2947 121.8002 16.1876 121.6528 16.0807 121.3778 15.9942 121.1235 16.0345 120.8891 16.202" fill="#002c61" fill-rule="evenodd" stroke-width="0"/><polygon points="122.5978 25.3131 122.2361 25.5008 121.8744 25.6887 121.6403 25.8563 121.4059 26.0238 121.0442 26.2114 120.5555 26.4195 120.4483 26.5669 120.2139 26.7344 119.9798 26.902 119.7453 27.0695 119.3836 27.2571 118.8949 27.4652 118.6404 27.5057 118.3654 27.419 118.218 27.3121 118.0706 27.2053 117.8161 27.2458 117.5816 27.4133 117.093 27.6214 116.8585 27.7889 116.6241 27.9564 116.5172 28.1036 116.4302 28.3782 116.4707 28.6322 117.123 31.9167 117.2704 32.0236 117.5451 32.1103 117.9473 32.1767 118.2421 32.3904 118.5168 32.4771 118.7915 32.5639 119.0664 32.6506 119.4483 32.59 119.5551 32.4426 119.6623 32.2952 119.7694 32.1478 120.1308 31.9601 120.3653 31.7926 120.4724 31.6452 120.5796 31.4978 120.6864 31.3506 120.9209 31.1831 121.028 31.0357 121.1147 30.7613 121.034 30.2528 120.8664 30.0189 120.6986 29.7848 120.5512 29.6779 120.3837 29.4441 120.2159 29.2099 120.1756 28.9559 120.2825 28.8085 120.5169 28.641 120.7513 28.4735 120.9855 28.306 121.2199 28.1384 121.3271 27.991 121.4342 27.8436 121.9229 27.6356 122.1573 27.468 122.2645 27.3209 122.4986 27.1531 123.135 27.0522 123.3431 27.5403 123.4238 28.0489 123.5713 28.1557 123.7189 28.2626 124.8641 28.0806 125.0986 27.9128 125.333 27.7453 125.4398 27.5981 125.547 27.4507 125.6541 27.3033 125.7613 27.1559 125.8682 27.0088 125.9552 26.7344 126.0623 26.587 126.1491 26.3126 125.9875 25.2958 125.8401 25.189 125.6927 25.0821 125.2905 25.0155 125.0158 24.9288 124.6138 24.8624 123.2138 25.0849 122.5978 25.3131" fill="#002c61" fill-rule="evenodd" stroke-width="0"/><polygon points="120.7349 33.2975 120.6482 33.5719 120.5611 33.8463 120.5147 34.3749 120.7369 35.7733 120.9044 36.0071 121.0521 36.114 121.1995 36.2209 121.3469 36.3277 121.5085 37.3445 121.4217 37.6189 121.3146 37.7663 121.2276 38.0407 121.1408 38.3151 121.0337 38.4625 120.9469 38.7369 120.8398 38.8843 120.753 39.1587 120.7267 39.8143 120.6397 40.089 120.6337 40.8717 120.9367 42.7782 121.1448 43.2664 121.3123 43.5005 121.4798 43.7344 121.6275 43.8412 121.7749 43.9481 121.9223 44.055 122.0697 44.1618 122.2375 44.396 122.385 44.5028 122.8941 44.4221 123.1285 44.2542 123.2353 44.1071 123.3425 43.9597 123.4496 43.8123 123.5568 43.6652 123.6637 43.5178 123.7708 43.3704 123.878 43.223 123.9848 43.0759 124.0718 42.8015 124.179 42.6541 124.2456 42.2524 124.8415 41.8972 125.0759 41.7297 125.183 41.5823 125.2899 41.4349 125.397 41.2875 125.6315 41.12 125.8656 40.9524 126.1 40.7849 126.2072 40.6378 126.3143 40.4904 126.2738 40.2361 126.1063 40.0023 125.9586 39.8954 125.7911 39.6613 125.6437 39.5544 125.4963 39.4475 125.3486 39.3407 125.0739 39.2539 124.2901 39.2483 123.2518 39.2828 123.2317 39.1558 123.3184 38.8815 123.4255 38.7341 123.5123 38.4597 123.6194 38.3123 123.7266 38.1649 123.8337 38.0177 123.9205 37.7433 124.0075 37.4687 124.1144 37.3215 124.2215 37.1741 124.3287 37.0267 124.4154 36.7523 124.482 36.351 124.5489 35.9493 124.575 35.2936 124.4942 34.7851 124.3468 34.6782 124.1994 34.5714 124.052 34.4645 123.9043 34.3576 123.7569 34.2508 123.6095 34.1439 123.3348 34.0572 123.1874 33.9503 123.0398 33.8434 122.8924 33.7366 122.745 33.6297 122.5975 33.5228 122.4499 33.416 122.3025 33.3091 122.1551 33.2022 121.8804 33.1155 121.6057 33.0288 120.8421 33.1501 120.7349 33.2975" fill="#002c61" fill-rule="evenodd" stroke-width="0"/><polygon points="266.4473 102.4688 266.2829 102.3993 266.1185 102.3302 265.9544 102.261 265.79 102.1916 265.509 102.17 265.2278 102.1482 264.9469 102.1266 264.666 102.1048 264.3848 102.0833 264.2207 102.0141 264.0563 101.9447 263.7754 101.9231 263.0276 102.0918 260.9274 102.9481 260.5082 103.2551 260.4393 103.4195 260.3701 103.5839 260.301 103.7483 260.4226 104.3802 259.956 104.5704 259.4415 104.6441 259.1606 104.6223 258.8794 104.6007 258.6676 104.4145 258.3127 103.8779 258.1483 103.8087 257.9839 103.7396 257.703 103.7177 257.5386 103.6486 257.2577 103.6267 256.9768 103.6052 256.4623 103.6786 256.1814 103.6568 256.017 103.5876 255.8049 103.4017 257.4385 102.7355 258.5576 102.1428 258.6268 101.9784 258.9293 101.719 260.6318 100.8885 260.7009 100.7241 260.7222 100.4429 260.7437 100.1617 260.765 99.8802 260.6221 99.5298 260.4101 99.3436 260.246 99.2744 259.3814 99.4907 258.8672 99.5641 258.3527 99.6375 257.8382 99.711 257.2072 99.832 256.9476 99.5293 257.0167 99.3649 257.0859 99.2004 257.1072 98.9192 257.1763 98.7548 257.2452 98.5904 257.3144 98.426 257.3833 98.2616 257.4524 98.0972 257.5216 97.9328 257.5428 97.6513 257.5644 97.3701 257.6333 97.2057 257.7024 97.0413 257.7713 96.8769 257.6284 96.5265 257.3688 96.2235 257.0615 95.8037 256.8974 95.7345 256.733 95.6654 256.4521 95.6435 256.1709 95.622 255.7735 95.6478 255.3758 95.6736 254.8613 95.7473 253.0633 96.344 252.5967 96.5342 251.0107 97.3171 250.5917 97.6244 250.4061 97.8364 250.2201 98.0482 250.1512 98.2126 250.0821 98.377 250.0132 98.5414 249.944 98.7058 249.8748 98.8702 249.806 99.0346 249.7368 99.199 249.7155 99.4805 249.6464 99.6449 249.5775 99.8093 249.3915 100.0211 248.6917 100.3068 248.4796 100.1206 248.432 100.0038 248.9678 99.6489 249.0369 99.4845 248.9414 99.2509 248.7773 99.1817 248.5652 98.9955 248.4008 98.9263 248.2367 98.8572 248.0247 98.6709 247.4317 97.5501 247.1244 97.1306 246.9124 96.9443 246.7003 96.7584 246.5362 96.6889 246.3242 96.503 246.1598 96.4335 245.9956 96.3644 245.8312 96.2952 245.6668 96.2261 245.5027 96.1566 245.2215 96.1351 245.0574 96.0656 244.893 95.9964 244.7285 95.9273 244.5165 95.741 244.3048 95.5551 244.0927 95.3689 243.9283 95.2997 243.7642 95.2305 243.5998 95.1611 243.4354 95.0919 243.271 95.0227 242.9901 95.0009 242.8256 94.9318 242.5447 94.9099 242.2638 94.8884 241.6328 95.0094 241.3516 94.9876 241.0707 94.9661 240.9063 94.8969 240.5086 94.9227 239.8776 95.0437 238.9442 95.4244 238.6417 95.6838 238.5728 95.8482 238.5037 96.0126 238.4348 96.177 238.4132 96.4585 238.3441 96.6229 238.6777 97.4407 238.8897 97.6266 239.0539 97.6961 239.2183 97.7653 239.3611 98.1156 239.2923 98.28 239.1063 98.4921 239.085 98.7733 239.3708 99.4743 239.5828 99.6605 239.7948 99.8465 239.959 99.9159 240.171 100.1019 240.3354 100.171 240.5474 100.3573 240.7116 100.4264 240.9928 100.4483 241.1569 100.5174 241.3213 100.5866 241.6022 100.6084 241.9999 100.5826 242.6309 100.4613 242.9121 100.4831 243.5431 100.3621 244.1741 100.241 244.5718 100.2152 244.9695 100.1892 245.2504 100.211 245.5316 100.2325 245.8601 100.3712 246.3579 101.2581 246.5699 101.4443 246.7343 101.5135 246.9461 101.6998 247.1105 101.7689 247.4178 102.1887 247.6298 102.3747 247.7939 102.4441 248.0536 102.7469 248.2656 102.9331 248.4776 103.1191 248.6418 103.1882 248.8062 103.2577 248.9706 103.3268 249.2515 103.3487 249.766 103.275 249.9301 103.3444 250.0945 103.4136 250.2589 103.4827 250.4231 103.5522 250.6351 103.7381 250.7995 103.8076 251.0113 103.9935 251.2233 104.1798 251.4353 104.3657 251.6473 104.552 251.9546 104.9715 252.1664 105.1577 252.4736 105.5775 252.8285 106.1141 253.1619 106.9319 253.1406 107.2131 253.2146 107.7279 253.1455 107.8923 253.1239 108.1738 253.1027 108.455 253.1766 108.9698 253.6529 110.1382 253.8649 110.3242 254.1245 110.6272 254.3363 110.8134 254.5007 110.8826 254.7127 111.0685 254.8771 111.138 255.0889 111.3239 255.3009 111.5102 255.513 111.6961 255.7247 111.8824 256.0796 112.419 256.1751 112.6525 256.0368 112.9814 255.9203 113.029 255.5226 113.0548 255.2414 113.0332 254.9605 113.0114 254.7961 112.9422 254.6319 112.8728 254.4675 112.8036 254.3031 112.7345 254.139 112.6653 253.9746 112.5958 253.8102 112.5267 253.6461 112.4575 253.434 112.2713 253.2696 112.2021 253.0576 112.0159 252.8935 111.9467 252.729 111.8775 252.4481 111.8557 252.2837 111.7866 252.1193 111.7171 251.886 111.8123 251.8171 111.9768 251.7956 112.258 251.9172 112.8898 252.2506 113.7076 252.5102 114.0106 253.008 114.8976 253.22 115.0838 253.3841 115.153 253.5962 115.3392 253.9987 115.9926 254.1631 116.0618 254.3751 116.248 254.5869 116.434 254.7513 116.5031 254.9157 116.5726 255.1274 116.7585 255.2918 116.8277 255.4563 116.8971 255.6207 116.9663 255.9016 116.9881 256.066 117.0573 256.2301 117.1265 256.6278 117.1007 257.5613 116.72 257.7469 116.5079 257.8161 116.3435 257.8853 116.1791 257.9541 116.0147 257.9757 115.7335 258.0446 115.5691 258.1137 115.4047 258.1826 115.2403 258.1565 114.8423 257.7968 113.6262 257.6063 113.1591 257.3467 112.8561 257.1347 112.6701 256.875 112.3671 256.7321 112.0164 256.7061 111.6185 256.4416 110.6363 255.9651 109.4678 255.7054 109.1651 255.4461 108.8621 255.234 108.6758 255.022 108.4899 254.7147 108.0701 254.3814 107.2523 254.0953 106.5512 253.836 106.2482 253.6716 106.1791 253.5072 106.1099 252.8189 104.7555 252.6545 104.6861 252.3472 104.2662 252.0878 103.9635 251.8282 103.6605 251.6162 103.4745 251.3565 103.1715 251.1448 102.9855 250.9327 102.7993 250.7207 102.6134 250.5087 102.4271 250.2921 102.2273 251.278 101.9773 251.6757 101.9515 251.8398 102.0206 252.121 102.0422 252.2851 102.1116 252.4495 102.1808 252.6616 102.367 252.8257 102.4362 253.0377 102.6221 253.2974 102.9252 253.4618 102.9943 253.6259 103.0638 253.7903 103.1329 253.9547 103.2021 254.1189 103.2716 254.4001 103.2931 254.681 103.3149 254.7286 103.4317 254.5642 103.3626 254.2144 103.5051 254.1452 103.6695 254.3621 104.535 254.3405 104.8162 254.5574 105.6816 254.7003 106.0322 255.0075 106.4518 255.2672 106.7548 255.6221 107.2914 255.7862 107.3605 255.9506 107.43 256.1627 107.6159 256.3271 107.6854 256.4912 107.7546 256.6556 107.8237 256.82 107.8932 256.9841 107.9623 257.1485 108.0315 257.313 108.1009 257.5939 108.1225 257.7583 108.1917 257.9224 108.2611 258.0868 108.3303 258.6013 108.2569 259.6989 107.9453 259.9324 107.8504 260.5847 107.4481 260.8872 107.1885 261.5397 106.7862 262.2398 106.5008 262.7541 106.4271 263.1518 106.4013 263.5495 106.3755 263.9472 106.3494 264.2972 106.2068 264.833 105.8519 265.0187 105.6402 265.2043 105.4282 265.3903 105.2161 265.5759 105.0041 265.7616 104.7921 266.1806 104.4851 266.3665 104.273 266.4354 104.1086 266.5046 103.9442 266.5735 103.7798 266.6426 103.6154 266.6639 103.3342 266.733 103.1698 266.8022 103.0054 266.707 102.7715 266.4473 102.4688" fill="#002c61" fill-rule="evenodd" stroke-width="0"/><polygon points="247.3347 106.9915 247.123 106.8055 247.0753 106.6884 246.9798 106.4549 246.8157 106.3857 246.6037 106.1995 246.2964 105.7797 246.2011 105.5461 246.0107 105.0786 245.7986 104.8927 245.6342 104.8235 245.4701 104.7541 245.3057 104.6849 245.0248 104.6634 244.3246 104.9488 243.9054 105.2558 243.4864 105.5631 243.1839 105.8225 243.1151 105.9869 243.0459 106.1513 243.0246 106.4325 243.0507 106.8307 243.1247 107.3455 243.1723 107.4623 243.4796 107.8821 243.6913 108.0683 243.8558 108.1375 244.163 108.5573 244.3751 108.7433 244.4703 108.9771 243.8178 109.3794 243.1176 109.6648 242.3698 109.8335 241.8556 109.9069 241.6912 109.8377 241.5268 109.7683 241.3627 109.6991 241.1507 109.5132 240.891 109.2101 240.4409 108.44 240.1336 108.0202 240.086 107.9034 240.0383 107.7863 239.6834 107.2497 239.4717 107.0638 239.3073 106.9946 239.1429 106.9251 238.9787 106.856 238.3951 107.0938 238.0929 107.3535 237.7905 107.6131 237.6048 107.8249 237.5356 107.9893 237.35 108.2013 237.1643 108.4133 237.0951 108.5777 237.026 108.7421 236.8879 109.071 236.8667 109.3522 237.2953 110.4038 237.5073 110.5898 237.7669 110.8928 237.9311 110.962 238.0955 111.0314 238.2599 111.1006 238.3075 111.2174 238.2383 111.3818 238.0527 111.5938 237.8194 111.689 236.8383 111.9527 236.5571 111.9311 236.1597 111.9569 235.8785 111.9351 235.5976 111.9135 235.3167 111.892 235.0355 111.8702 234.6378 111.896 234.3569 111.8744 234.1924 111.8053 233.9115 111.7834 233.7471 111.7143 233.583 111.6448 233.4186 111.5757 233.2542 111.5065 233.0901 111.437 232.9256 111.3679 232.7612 111.2987 232.5968 111.2295 231.7802 111.5623 231.9494 112.311 231.9278 112.5922 231.9066 112.8736 232.0018 113.1072 232.5472 114.111 232.7593 114.2972 232.9713 114.4832 233.1354 114.5526 233.2998 114.6218 233.4642 114.6909 233.6284 114.7604 233.8404 114.9463 234.0524 115.1326 234.2165 115.2017 234.6142 115.1759 234.8954 115.1975 235.1764 115.2193 235.4573 115.2409 235.7385 115.2627 236.1362 115.2366 236.6504 115.1632 236.9313 115.185 237.2125 115.2066 237.4934 115.2284 237.7743 115.2499 238.4056 115.1289 239.0366 115.0078 239.4343 114.9821 240.4153 114.7181 240.9295 114.6447 241.2107 114.6663 241.4228 114.8525 241.5869 114.9217 241.7989 115.1079 241.9633 115.1771 242.361 115.1513 242.7587 115.1252 243.0397 115.147 243.4374 115.1209 243.8351 115.0952 244.4184 114.8573 244.7209 114.5977 244.7898 114.4333 244.8589 114.2689 244.5945 113.2866 244.616 113.0055 244.8017 112.7934 244.9873 112.5814 245.4063 112.2744 245.7088 112.0147 246.0112 111.7551 246.0804 111.5907 246.1493 111.4263 246.3349 111.2142 247.8044 110.4789 247.8733 110.3145 247.9425 110.1501 247.9637 109.8689 247.9853 109.5877 248.0065 109.3065 248.0757 109.1421 248.0493 108.7441 248.0709 108.4626 247.5467 107.1777 247.3347 106.9915" fill="#002c61" fill-rule="evenodd" stroke-width="0"/><polygon points="170.181 19.1223 169.9015 19.1869 169.7218 19.935 169.8165 20.0895 169.9115 20.2442 170.1312 20.4288 170.8497 20.7335 171.0694 20.9183 171.1644 21.0728 171.3841 21.2576 171.4787 21.4121 171.9479 21.6567 172.2923 21.8716 172.637 22.0862 173.0112 22.1763 173.2909 22.1117 173.5704 22.0471 173.8499 21.9824 174.1294 21.9178 174.3743 21.4492 174.5889 21.1054 174.6788 20.7315 174.5841 20.5767 174.3644 20.3922 174.1447 20.2074 174.0501 20.0529 173.8304 19.8681 172.4575 19.5378 171.5839 19.3278 170.4608 19.0576 170.181 19.1223" fill="#002c61" fill-rule="evenodd" stroke-width="0"/><polygon points="161.6697 17.7347 161.4849 17.9541 161.3301 18.0488 161.1802 18.6718 161.2752 18.8266 161.3698 18.9811 161.4648 19.1359 161.6544 19.4451 161.7193 19.7243 161.814 19.8791 161.909 20.0339 161.9736 20.3131 162.0686 20.4676 162.2883 20.6524 162.7874 20.7723 162.9422 20.6776 163.097 20.5832 163.3464 20.6431 164.0953 20.8233 164.1852 20.4495 164.1203 20.17 164.0256 20.0155 163.9307 19.8607 163.866 19.5815 163.7711 19.4267 163.6764 19.2722 163.4567 19.0874 163.237 18.9029 163.0774 18.4689 162.9825 18.3141 162.6381 18.0995 162.4184 17.915 162.3237 17.7602 161.8245 17.6403 161.6697 17.7347" fill="#002c61" fill-rule="evenodd" stroke-width="0"/><polygon points="166.4509 26.3999 166.5456 26.5544 166.6406 26.7092 166.86 26.8937 167.2047 27.1086 167.2693 27.3878 167.3342 27.667 167.1545 28.4148 166.8498 29.1328 166.6352 29.4767 166.2106 30.693 166.0907 31.1916 166.1856 31.3461 166.1556 31.4708 165.9707 31.6902 165.816 31.7846 165.6612 31.8793 165.3817 31.9439 165.1969 32.1633 164.9523 32.6319 164.6175 33.4744 164.433 33.6935 164.2782 33.7882 164.0934 34.0076 163.7586 34.85 163.5741 35.0691 163.4193 35.1638 163.2645 35.2585 163.1097 35.3532 162.775 36.1956 162.5853 35.8861 162.5204 35.6069 162.0212 35.487 161.8367 35.7061 161.532 36.4241 161.4421 36.798 161.5368 36.9525 162.161 37.1027 161.8911 38.2244 161.9858 38.3789 161.956 38.5036 161.6814 39.0969 161.5915 39.4708 161.6264 39.8747 161.691 40.1539 161.786 40.3087 161.8509 40.5879 161.8857 40.9918 161.9804 41.1463 162.0754 41.3011 162.6692 41.5758 162.7341 41.855 162.7991 42.1345 162.894 42.289 163.1134 42.4738 163.3632 42.5336 163.7677 42.499 163.9224 42.4046 164.0772 42.31 164.4117 41.4675 164.5965 41.2481 164.7513 41.1534 164.9061 41.059 165.0557 40.4357 165.1158 40.1865 165.3905 39.5932 165.5453 39.4986 166.0048 38.6861 166.1893 38.467 166.3741 38.2476 166.5887 37.9038 166.8336 37.4352 167.0181 37.2158 167.1981 36.468 167.5726 36.5582 167.6673 36.7127 167.5525 37.7399 167.4326 38.2386 167.3127 38.7369 167.3773 39.0164 167.4422 39.2956 167.5372 39.4501 167.6318 39.6049 167.7268 39.7596 167.8215 39.9141 167.9164 40.0689 168.0162 40.752 168.1109 40.9068 168.1758 41.186 168.2407 41.4652 168.2756 41.8692 168.3706 42.0239 168.59 42.2085 168.6849 42.3632 168.7796 42.5177 168.8746 42.6725 168.9692 42.827 169.0642 42.9818 169.2839 43.1663 169.3786 43.3211 169.4735 43.4758 169.6932 43.6604 171.5652 44.1105 172.0944 44.106 172.4987 44.0714 172.6534 43.9767 172.8082 43.8821 173.0231 43.5382 173.3026 43.4736 173.4573 43.3789 173.6719 43.0351 173.8567 42.8157 174.1362 42.751 174.291 42.6566 174.4458 42.562 174.6005 42.4673 174.9654 41.5001 175.1201 41.4054 175.2749 41.311 175.4895 40.9669 175.7044 40.6231 175.8591 40.5284 176.0139 40.434 176.1687 40.3393 176.3183 39.716 176.2237 39.5615 176.1287 39.4067 176.034 39.2522 175.4098 39.102 175.1303 39.1666 174.9756 39.2613 174.8208 39.356 174.5413 39.4206 174.3865 39.5153 174.1067 39.5796 173.8273 39.6443 173.5478 39.7089 173.1433 39.7435 172.8638 39.8081 172.4595 39.8427 172.1798 39.9073 171.5258 39.8821 171.4011 39.852 171.1814 39.6672 171.2415 39.4181 171.3013 39.1689 171.5062 37.7677 171.686 37.0199 171.7758 36.6461 171.741 36.2421 171.8609 35.7435 172.0108 35.1204 172.1007 34.7463 172.1905 34.3724 172.1857 33.844 172.1208 33.5645 172.0562 33.2853 171.9612 33.1308 171.8662 32.976 171.7716 32.8213 171.6766 32.6668 171.4572 32.482 170.9878 32.2373 170.1442 31.9026 169.6751 31.6579 169.7349 31.4088 169.8896 31.3141 170.0444 31.2194 170.3191 30.6261 170.4739 30.5317 170.6587 30.3123 170.9334 29.7193 171.2381 29.0013 171.3929 28.9066 171.5476 28.8122 171.8172 27.6903 171.7225 27.5358 171.6276 27.381 171.0337 27.1063 170.9387 26.9516 170.8438 26.7971 170.6244 26.6123 170.155 26.3676 169.4063 26.1876 168.7524 26.1621 168.3479 26.1967 168.0984 26.1369 167.8787 25.9521 167.5343 25.7375 166.6607 25.5274 166.4509 26.3999" fill="#002c61" fill-rule="evenodd" stroke-width="0"/><path d="M157.6689,29.4302l.2798-.0647.1247.0301.2197.1845.0947.1548-.1148,1.027-.2398.9972-.15.6231-.1797.7478-.2449.4685-.3943,1.0919-.1848.2191-.0301.1248-.1199.4986-.1848.2191-.1548.0947-.5289.0045-.2497-.0598-.4992-.1202.0598-.2491.3744.0898.1548-.0947.1848-.2191.3048-.7177.2145-.3441.1199-.4984-.0348-.4039.1547-.0947.1548-.0947.1548-.0946.1199-.4987.055-.7778-.0947-.1545-.095-.1547.2795-.0647.1548-.0947.1548-.0946.1548-.0944.21-.8725-.0649-.2795-.095-.1545-.0946-.1548.0297-.1244h0ZM158.6936,22.4249l-.1848.2191-.1848.2194-.2446.4686-.2149.3438-.2146.3439-.2148.3438-.2146.3442-.2447.4685-.2148.3439-.2747.593-.2446.4685-.2747.5933-.2446.4686-.1849.2191-.2145.3441-.2149.3439-.2446.4686-.2747.593-.2146.3441-.2149.3438-.2746.5933-.2747.593-.2146.3439-.1848.2194-.3345.8424-.1548.0947-.2746.593-.3946,1.0919-.1548.0947-.1199.4983-.0301.1248-.3945,1.0919-.1849.2191-.1547.0947-.1497.623-.18.7481-.1845.2191-.2798.0646-.1548.0947-.1548.0947-.2795.0646-.1547.0944-.2795.0646-.2798.0647-.2795.0646-.2795.0646-.2795.0646-.4045.0346-.2795.0647-.2798.0646-.5289.0045-.2497-.0598-.2197-.1848-.3444-.2146-.2495-.0601-.1548.0947-.2449.4686-.0898.3739.0949.1547.0947.1545.095.1548.0946.1545.2197.1848.095.1545.0947.1547.0949.1545.0947.1548.2197.1845.2197.1849.0947.1547.2196.1846.9984.2401.5292-.0046.4045-.0346.1548-.0946.4042-.0346.4045-.0346.2795-.0646.3444.2146.0051.5286.0049.5284-.0253.6534.0352.4039.0947.1545.0949.1548.4992.1199.1548-.0944.1547-.0947.1548-.0947.1548-.0946.1548-.0947.9334-.0391.1548-.0947.1797-.7478.1199-.4986.2999-1.2464.0899-.3739.2795-.0646.1547-.0947.1548-.0947.1548-.0944.1547-.0946.1849-.2194.1797-.7478.03-.1248.1247.0301.065.2795-.025.6531.0048.5287.095.1544.0947.1548-.055.7778-.025.6531.0947.1548.4992.1199.3745.0902.3444.2145.4991.1202.1548-.0946.1848-.2194.2747-.5931.4845-1.4657.2148-.3439.0899-.3739.0598-.2494.2149-.3439.2145-.3438.4247-1.2164.5743-1.8396.1848-.2192.1548-.0946.2145-.3439.1548-.0947.1548-.0946.1848-.2192.1548-.0946.1547-.0947.1849-.2194.2145-.3439.3096-.1893.1548-.0944.1547-.0947.1548-.0947.2449-.4685.1846-.2191.2797-.0647.1548-.0946.1845-.2194.1849-.2192.2148-.3441.0298-.1244-.0947-.1548-.3744-.0899-.1548.0944-.1548.0947-.1548.0947-.1547.0947-.1548.0946-.1548.0947-.1547.0944-.1548.0947-.1848.2194-.1548.0947-.1548.0944-.1548.0946-.1547.0947-.1548.0947-.1548.0947-.1547.0944-.2495-.0598.1797-.7478.1797-.7481.1151-1.027.0899-.3739.1199-.4986.2049-1.4012-.0348-.4039-.0349-.4039.025-.6531-.0349-.404-.0646-.2792-.3447-.2146-.6239-.1502-.654-.0252-.5292.0045-.6713-.0363.2021-.2083.1548-.0947.1548-.0947.0598-.2494.1199-.4984.18-.748-.095-.1545.0851-.9026-.0349-.4039-.0649-.2792-.0649-.2792-.3742-.0902-.1548.0947Z" fill="#002c61" fill-rule="evenodd" stroke-width="0"/><polygon points="239.919 68.3388 239.7458 68.3076 239.5726 68.2767 239.3994 68.2455 239.2262 68.2146 239.053 68.1838 238.8087 68.0505 237.852 66.896 237.6076 66.7627 237.3633 66.6298 237.1901 66.5986 236.9455 66.4654 236.6702 66.5056 236.497 66.4745 236.3238 66.4436 236.1506 66.4127 235.8754 66.4526 235.7022 66.4217 235.4269 66.4617 235.2537 66.4308 234.9785 66.4708 234.8053 66.4399 234.428 66.551 234.051 66.6624 233.6737 66.7735 233.3985 66.8135 233.0212 66.9249 232.7459 66.9649 232.3689 67.0763 231.8896 67.2585 231.7164 67.2276 231.5432 67.1964 231.37 67.1655 231.0947 67.2055 230.7175 67.3169 230.3402 67.428 229.7591 67.6815 229.2797 67.8637 229.0045 67.904 228.5254 68.0862 228.3522 68.0553 228.077 68.0953 227.9038 68.0644 227.7306 68.0332 227.486 67.9003 227.3128 67.8691 227.0684 67.7362 226.8241 67.6029 226.5794 67.4697 226.4062 67.4388 226.233 67.4076 225.9887 67.2747 225.6423 67.2126 225.3977 67.0794 224.9396 66.6397 224.5836 66.1292 224.4722 65.7516 224.3296 65.5472 224.1564 65.5163 223.9832 65.4852 223.7791 65.6275 223.3712 65.9121 222.9939 66.0232 222.8207 65.9923 222.6475 65.9611 222.3723 66.0014 222.1991 65.9702 222.0259 65.9393 221.7506 65.9795 221.4754 66.0195 220.6593 66.5884 220.5266 66.8328 220.3937 67.0771 220.3631 67.2506 220.3322 67.4238 220.3727 67.699 220.3418 67.8725 220.3109 68.0457 220.2803 68.2189 220.3205 68.4944 220.4631 68.6985 220.5343 68.8006 220.3611 68.7697 220.1879 68.7388 220.0147 68.7076 219.8415 68.6767 219.6683 68.6455 219.393 68.6858 219.1178 68.7257 218.9446 68.6948 218.6694 68.7348 218.3941 68.7751 218.2209 68.7439 218.0477 68.713 217.8745 68.6821 217.5993 68.7221 217.324 68.7623 216.9467 68.8734 216.5695 68.9845 216.1924 69.0959 215.4784 69.5937 215.4475 69.7669 214.9375 70.1226 214.3255 70.5493 214.1926 70.7936 214.162 70.9668 214.1311 71.1403 214.1716 71.4155 214.1407 71.5887 214.1813 71.8643 214.1504 72.0375 214.1195 72.2106 214.16 72.4862 214.2005 72.7614 214.5566 73.2722 214.8009 73.4055 214.9741 73.4363 215.1473 73.4675 215.3205 73.4984 215.4937 73.5293 215.6669 73.5605 215.8401 73.5914 216.0136 73.6226 216.2885 73.5823 216.462 73.6135 216.6352 73.6444 216.8084 73.6753 216.9816 73.7065 217.1548 73.7374 217.328 73.7686 217.9091 73.5149 218.1844 73.4749 218.4596 73.4346 218.7348 73.3947 218.908 73.4256 219.1833 73.3856 219.3565 73.4165 219.6317 73.3765 219.8049 73.4074 220.0802 73.3675 220.3554 73.3272 220.8347 73.1449 221.3138 72.9627 221.2832 73.1359 221.4966 73.4423 221.6698 73.4732 221.843 73.5044 222.0162 73.5353 222.1897 73.5665 222.4647 73.5262 222.842 73.4151 223.0152 73.446 223.1884 73.4772 223.3615 73.5081 223.535 73.539 223.81 73.499 223.9835 73.5299 224.2584 73.4899 224.5337 73.4497 224.7069 73.4809 224.9821 73.4406 225.2574 73.4006 225.4306 73.4315 225.6038 73.4627 225.879 73.4225 226.3371 73.8621 226.5817 73.9953 226.7549 74.0262 226.9993 74.1595 227.1724 74.1904 227.3456 74.2215 227.59 74.3545 227.9058 74.5898 228.2213 74.825 228.4659 74.9583 228.7814 75.1935 228.924 75.3979 229.0354 75.7755 229.0759 76.0507 229.2587 76.5304 229.6859 77.1432 230.0017 77.3785 230.1749 77.4097 230.3481 77.4406 230.5213 77.4715 230.6945 77.5026 230.9697 77.4624 231.347 77.3513 231.9281 77.0979 232.7442 76.5289 232.9792 76.2135 233.2139 75.898 233.2445 75.7245 233.2754 75.5513 233.3063 75.3781 233.337 75.2049 233.3678 75.0317 233.3987 74.8582 233.4294 74.685 233.6644 74.3695 233.797 74.1252 233.9297 73.8808 233.9606 73.7076 234.0935 73.4633 234.5323 73.0055 234.665 72.7611 235.1749 72.4054 235.5522 72.2943 235.7254 72.3252 236.0007 72.2852 236.2759 72.2449 236.4491 72.2761 236.7244 72.2359 236.9996 72.1959 237.2748 72.1557 237.7539 71.9734 238.1312 71.8623 238.4064 71.822 238.7837 71.7109 239.4978 71.2129 239.6304 70.9685 239.5902 70.6933 239.6208 70.5201 239.6517 70.3466 239.8864 70.0311 240.0193 69.7867 240.05 69.6135 240.0809 69.4403 240.1118 69.2672 240.1424 69.0937 240.3059 68.6761 240.0925 68.3697 239.919 68.3388" fill="#002c61" fill-rule="evenodd" stroke-width="0"/><polygon points="223.071 77.6571 222.8267 77.5239 222.6535 77.493 222.4803 77.4618 222.103 77.5732 221.726 77.6843 221.2466 77.8666 220.5326 78.3647 220.3285 78.507 220.0226 78.7201 219.5838 79.1779 218.7368 79.92 218.6042 80.1647 218.4712 80.409 218.3386 80.6534 218.3077 80.8266 218.277 80.9998 218.1441 81.2441 218.1135 81.4176 218.0826 81.5908 217.9496 81.8351 217.919 82.0083 217.8881 82.1815 217.8575 82.355 218.0404 82.8346 218.7215 84.0291 218.9353 84.3356 219.1084 84.3665 219.2816 84.3976 219.5569 84.3574 219.8321 84.3174 220.1074 84.2772 220.3826 84.2372 220.7599 84.1258 221.341 83.8724 222.565 83.0192 222.9018 82.6325 223.0347 82.3879 223.0653 82.2147 223.0962 82.0415 223.2292 81.7971 223.3618 81.5528 223.3927 81.3796 223.4233 81.2061 223.4542 81.0329 223.4849 80.8597 223.5158 80.6865 223.6487 80.4422 223.7814 80.1978 223.8123 80.0243 223.8429 79.8512 223.8738 79.678 223.8332 79.4024 223.793 79.1272 223.7524 78.8517 223.6408 78.4744 223.6717 78.3009 223.2445 77.688 223.071 77.6571" fill="#002c61" fill-rule="evenodd" stroke-width="0"/><polygon points="80.3069 30.5638 80.0345 30.8702 79.6498 31.2412 79.0407 31.7418 78.7683 32.0483 78.7206 32.2251 79.0438 32.7861 79.2207 32.8335 79.5101 32.8162 79.9118 32.7342 80.2655 32.8292 80.5073 32.9888 80.6842 33.0361 80.8611 33.0835 81.0382 33.1311 81.2151 33.1784 81.3274 33.1138 81.5522 32.9843 81.729 33.0319 81.9059 33.0792 82.0831 33.1266 82.4201 32.9324 82.4678 32.7555 82.5154 32.5786 82.8524 32.3844 83.8633 31.8019 83.9109 31.625 84.071 31.3832 84.054 31.0941 83.8601 30.7576 83.6183 30.5981 83.3768 30.4385 83.1829 30.102 83.1659 29.8129 83.1489 29.5237 83.0197 29.2992 82.8428 29.2519 82.6656 29.2045 82.2639 29.2865 80.8038 30.1281 80.3069 30.5638" fill="#002c61" fill-rule="evenodd" stroke-width="0"/><polygon points="69.1835 35.928 69.2002 36.2172 69.1526 36.3941 69.2342 36.7952 69.6869 37.5806 70.1223 38.0767 70.4934 38.4608 70.9288 38.9569 71.2352 39.2287 71.4121 39.276 71.589 39.3237 71.7661 39.371 72.0076 39.5306 72.3138 39.8024 72.5556 39.962 72.7971 40.1216 73.1341 39.9274 73.1817 39.7506 72.777 38.7885 72.6307 38.2748 72.2429 37.6019 71.6133 36.7691 71.4364 36.7217 71.13 36.4499 70.8885 36.2903 70.6467 36.1307 70.4052 35.9711 70.2283 35.9235 69.8573 35.5397 69.6804 35.4921 69.2311 35.7512 69.1835 35.928" fill="#002c61" fill-rule="evenodd" stroke-width="0"/><polygon points="83.7833 42.3085 84.0418 42.7573 84.6034 42.4335 84.2802 41.8726 83.8309 42.1317 83.7833 42.3085" fill="#002c61" fill-rule="evenodd" stroke-width="0"/><polygon points="82.5792 37.6226 82.773 37.9591 83.1441 38.3432 83.4502 38.615 83.7567 38.8868 83.9982 39.0464 84.2397 39.206 84.4169 39.2536 84.6754 39.7024 84.757 40.1035 85.2264 41.1778 85.3081 41.5792 85.4543 42.0925 85.536 42.4939 85.6822 43.0073 85.8285 43.5206 86.104 44.2585 86.2979 44.5952 86.4918 44.9317 86.5735 45.3328 86.5905 45.622 86.6075 45.9111 86.7537 46.4244 87.0293 47.1623 87.1755 47.6759 87.3864 48.3015 88.7439 50.6571 89.115 51.0412 89.3565 51.2008 89.6459 51.1835 89.983 50.9894 90.0306 50.8125 89.6904 49.9626 89.6734 49.6735 89.721 49.4966 89.6394 49.0952 88.8468 47.4599 88.6359 46.8343 88.5543 46.4329 88.4727 46.0318 88.0676 45.0695 87.9862 44.6684 87.9692 44.3792 88.0169 44.2024 87.9998 43.9132 87.9828 43.6241 87.9658 43.335 87.9488 43.0461 87.9967 42.8689 87.9797 42.5801 88.3168 42.3859 88.5583 42.5455 88.8644 42.8174 89.2355 43.2012 89.3647 43.4257 89.4464 43.8268 89.8988 44.612 90.2052 44.8838 90.981 46.23 90.9978 46.5191 91.0148 46.8083 91.2733 47.257 91.5797 47.5288 91.8212 47.6884 91.9984 47.7358 92.2399 47.8956 92.4814 48.0552 92.6586 48.1026 92.9477 48.0853 93.2371 48.068 93.5263 48.0507 93.8157 48.0334 93.9926 48.081 94.1697 48.1283 94.4113 48.2879 94.6528 48.4475 94.8299 48.4952 95.0068 48.5425 95.2962 48.5252 95.8101 48.3784 97.2703 47.537 97.2533 47.2479 97.3012 47.071 97.3488 46.8941 97.3964 46.7173 97.444 46.5404 97.4917 46.3632 97.5396 46.1863 97.5872 46.0095 97.8593 45.703 98.0195 45.4615 98.0671 45.2846 98.0501 44.9955 97.9684 44.5941 97.9517 44.3053 97.9993 44.1281 98.047 43.9512 98.0946 43.7743 98.0776 43.4852 97.9959 43.0841 98.2684 42.7777 98.316 42.6008 98.299 42.3117 98.3469 42.1348 98.3299 41.8456 98.3775 41.6688 98.4251 41.4919 98.4727 41.315 98.5206 41.1381 98.5036 40.849 98.3744 40.6245 98.1972 40.5771 98.0203 40.5298 97.7309 40.5471 96.9449 41.0001 96.6724 41.3065 96.5123 41.548 96.4647 41.7249 96.417 41.9018 96.3694 42.0789 96.3218 42.2558 96.2739 42.4327 96.114 42.6742 96.0664 42.8511 95.9062 43.0929 95.7464 43.3344 95.6987 43.5113 95.5386 43.7531 95.3787 43.9946 95.2186 44.2364 95.0587 44.4779 95.0108 44.6548 94.4016 45.1554 94.1601 44.9958 92.6254 42.5926 92.1084 41.6951 91.8326 40.9573 91.7509 40.5562 91.2985 39.7707 91.1693 39.5465 90.9107 39.0977 90.6043 38.8259 90.3628 38.6663 90.121 38.5067 89.9441 38.4591 89.7673 38.4118 89.4778 38.429 89.1887 38.4463 88.787 38.5283 88.3854 38.6102 87.8238 38.9339 87.4392 39.3049 87.3915 39.4821 87.3436 39.659 87.296 39.8359 87.0236 40.1423 86.976 40.3192 86.993 40.6083 87.0746 41.0094 87.0916 41.2986 87.044 41.4754 86.9315 41.5401 86.7376 41.2036 86.6559 40.8025 86.7036 40.6253 86.6868 40.3365 86.6698 40.0473 86.5882 39.646 86.5712 39.3568 86.779 38.9384 86.8266 38.7615 86.745 38.3602 85.7752 36.6775 85.5983 36.6299 85.4212 36.5826 85.132 36.5998 84.9549 36.5525 84.6657 36.5698 84.2641 36.6517 83.7501 36.7986 83.124 37.01 82.5621 37.3335 82.5792 37.6226" fill="#002c61" fill-rule="evenodd" stroke-width="0"/><path d="M80.7497,48.9881c.1457-.5414-.0967.3583,0,0h0ZM80.9861,46.5855l-.0479.1768.0479-.1768h0ZM79.0177,45.2041l-.8339.6299-.1599.2418.017.2891-.0476.1769-.0479.1769-.0477.1769.017.2891.0817.4011.017.2891.0816.4014.0817.4014.0816.4011.0167.2891.017.2892.3405.8498-.3235-.5607-.0816-.4014-.0816-.4014-.0817-.4011-.1462-.5133-.2756-.7379-.3231-.561-.3062-.2718-.1941-.3365.0479-.1769.0476-.1768.0476-.1769-.0816-.4014-.0817-.4014-.1462-.5133-.1463-.5134-.0816-.4014-.1463-.5133.0479-.1769.0953-.3541.337-.1941.1769.0476.1769.0473.2418.1596.3707.3841.6296.8325.6466,1.122.0167.2891h0ZM71.1907,40.4499l-.0476.1768-.0479.1769-.0477.1769.4048.9621.4697,1.0743.728,1.5231.1462.5136.8575,1.7473.2585.4487.0647.1123.4047.962.7759,1.3462.3878.6732.2111.6256.2109.6257.3878.6732.4524.7852.1942.3365.5817,1.0097.4524.7851.388.673.0171.2891.017.2892-.0479.1768-.0477.1769-.0476.1769-.0476.1772-.0476.1769-.0479.1768-.1599.2415-.0476.1769-.1602.2418-.0476.1769-.1599.2415-.0479.1769-.0476.1772-.2724.3061-.0476.1772-.0477.1769-.1598.2415-.0479.1768.017.2892-.0477.1769-.2724.3064-.2721.3064-.0479.1769-.0476.1769-.0476.1769-.0477.1768-.0476.1769-.0479.1769-.0476.1772-.0476.1769-.0477.1768-.0476.1769-.0479.1769-.0476.1769-.0476.1769-.2724.3064-.2722.3064-.1601.2415-.0476.1769.017.2891.1939.3365.1768.0476.2895-.0173.5139-.1468.2894-.0173.4493-.2588.2721-.3064.1602-.2415.1598-.2418.9462-.6948.3847-.371.1602-.2418.1598-.2416.1602-.2415.1599-.2418.0479-.1768.0476-.1769-.017-.2892.0476-.1768.0476-.1769.1602-.2418.1599-.2415.0476-.1769-.0167-.2891.2721-.3065.0476-.1768.337-.1942.2418.1596.2416.1596.371.3841.5.6083.3065.2718.3061.2719.3061.2718.1772.0473.1769.0474.3064.2718.3708.3841.1769.0473.2894-.0172.2248-.1293.0476-.1769.0476-.1771-.4527-.7852-.2585-.4488-.1292-.2242-1.2113-1.8425-.4357-.4961-.3061-.2718-.2585-.4487-.017-.2892-.0171-.2891.0953-.3538.1772.0476.1938.3365.0647.1123.3707.3838.2418.1596.2416.1596.3064.2718.3061.2719.6942.945.2892-.0173.337-.1941.0476-.1772.0479-.1769.0476-.1769.0477-.1769-.0817-.4011-.0816-.4013-.0816-.4014.7217-.5653.0476-.1768-.1463-.5134-.2109-.6256-.3878-.6732-.2418-.1596-.0646-.1123.1602-.2415.1598-.2418.1602-.2415.0476-.1769.0476-.1769-.017-.2891-.017-.2891-.0816-.4014-.3402-.8498.0479-.1769.0477-.1769-.1463-.5136-.0816-.4011-.4695-1.0747-.0816-.4011-.0816-.4013.0306-.4661-.0817-.4011-.1462-.5136.0476-.1769.0479-.1769.0476-.1768-.017-.2892.0476-.1769.0477-.1768.0479-.1769.0476-.1769.0476-.1769-.0816-.4014-.3711-.3841-.3367.1945-.0479.1769-.0477.1769-.0476.1768-.0476.1769-.0476.1769-.2895.0173-.3061-.2718-.6296-.8326-.3064-.2718-.5-.6086-.7589-1.0571-.4356-.496-.2892.0173-.3064-.2719-.2415-.1596-.2415-.1596-.2418-.1596-.1769-.0476-.1769-.0473-.1772-.0476-.1768-.0474-.7387.2761-.2892.0173-.4016.0822-.8986.5179-.1602.2415-.0476.1769-.0476.1769-.0477.1769-.0476.1768.0167.2892.0171.2891.017.2891.017.2892.017.2891.0816.4011.1463.5137.1463.5133.7279,1.5231-.0476.1768-.0477.1769-1.0989-1.9068.0476-.1769-.5171-.8975-.1941-.3367-.1293-.2242-1.0174-1.5058-.8234-1.1693-.5-.6083-.2418-.1596-.1769-.0476-.1769-.0474-.2248.1293-.0476.1772h0ZM84.3344,43.784l-.6911.0995-.1939-.3368.0476-.1769.0479-.1769.5616-.3237.3231.561-.0476.1769-.0476.1769Z" fill="#002c61" fill-rule="evenodd" stroke-width="0"/><polygon points="42.8394 58.2942 42.7663 58.5698 42.6931 58.8453 42.7045 59.0253 42.7155 59.2053 42.7269 59.385 42.7382 59.565 42.9293 59.7334 43.0979 59.5421 43.2686 59.1591 43.5535 59.6033 43.9469 60.12 44.1493 60.4684 44.1606 60.6484 45.0207 61.4061 45.4873 61.6473 45.7628 61.7202 45.9428 61.7086 46.1228 61.6972 46.3025 61.6856 46.4825 61.6743 46.7467 61.5668 47.1682 61.0883 47.2413 60.8128 47.23 60.6328 47.2189 60.4531 47.2076 60.2731 47.1007 60.0089 46.4318 59.4196 44.0535 57.494 43.8738 57.5056 43.6938 57.517 43.5138 57.5286 43.1654 57.7313 43.0809 57.8271 42.8394 58.2942" fill="#002c61" fill-rule="evenodd" stroke-width="0"/><polygon points="44.6553 62.7843 44.6666 62.9643 44.7735 63.2282 45.3469 63.7336 45.6225 63.8062 45.8025 63.7949 45.9822 63.7832 46.1622 63.7719 46.3419 63.7603 46.6064 63.6531 46.7861 63.6418 46.9661 63.6302 47.2189 63.343 47.3765 62.9717 47.3652 62.792 47.3539 62.612 47.247 62.3478 46.6735 61.8426 46.4938 61.854 46.3138 61.8656 46.1338 61.8769 45.9541 61.8886 45.7741 61.8999 45.5941 61.9115 45.4144 61.9229 45.2344 61.9345 44.7284 62.5088 44.6553 62.7843" fill="#002c61" fill-rule="evenodd" stroke-width="0"/><polygon points="43.0421 64.4227 43.0531 64.6025 43.16 64.8666 43.6379 65.2879 43.8293 65.4563 43.9358 65.7204 44.0427 65.9843 44.8075 66.6581 45.2741 66.8994 46.0273 67.3932 46.3983 67.5502 46.6738 67.6228 46.9494 67.6956 47.1294 67.684 47.3091 67.6727 47.4891 67.661 47.6691 67.6497 47.8488 67.6381 48.1975 67.4351 48.5461 67.2324 48.799 66.9453 48.8721 66.6695 48.8608 66.4898 48.8494 66.3098 48.7426 66.0456 48.4446 65.613 47.7757 65.0237 47.4046 64.8666 47.2246 64.8783 47.0449 64.8896 46.8649 64.9012 46.4938 64.7442 46.2183 64.6713 45.9428 64.5988 45.7631 64.6101 45.5831 64.6217 45.201 64.2847 44.6272 63.7796 44.4475 63.7909 44.0764 63.6341 43.8964 63.6455 43.7167 63.6571 43.4523 63.7643 43.1152 64.1469 43.0421 64.4227" fill="#002c61" fill-rule="evenodd" stroke-width="0"/><polygon points="38.5339 73.2002 38.3763 73.5716 38.2189 73.9429 38.0616 74.3142 37.9043 74.6856 37.5443 74.7085 37.2801 74.8157 36.4368 75.7727 36.2795 76.144 36.2908 76.324 36.3977 76.5879 36.6001 76.9363 37.078 77.3575 37.449 77.5143 37.6288 77.5029 37.9043 77.5755 38.1685 77.4683 38.444 77.5412 38.7195 77.6138 38.9951 77.6866 39.2593 77.5795 40.2709 76.4312 40.2599 76.2512 40.2485 76.0712 39.8551 75.5544 39.9279 75.2789 40.0011 75.0033 39.8942 74.7392 40.2429 74.5362 40.4229 74.5249 40.6026 74.5132 42.0364 75.7763 43.0988 76.8827 43.4925 77.3995 43.6949 77.7478 45.4266 79.4435 45.9156 80.0445 46.5959 80.8141 46.7027 81.078 48.2431 82.6053 48.4455 82.9537 49.6037 84.1442 49.8061 84.4926 50.762 85.3348 51.0488 85.5873 51.3354 85.8399 51.7065 85.9969 52.173 86.2382 52.6396 86.4791 53.0107 86.6362 53.4773 86.8774 53.7528 86.95 54.1238 87.107 54.3038 87.0957 54.4838 87.084 54.6636 87.0727 55.0009 86.6897 55.0854 86.5939 55.3495 86.4868 55.6869 86.1041 55.6755 85.9241 55.6642 85.7444 55.6531 85.5644 55.5463 85.3002 55.2481 84.8676 54.6746 84.3625 54.3994 84.2896 54.0283 84.1326 53.837 83.9642 53.7301 83.7 53.7191 83.5203 53.5167 83.1719 53.2185 82.7394 53.0161 82.391 52.9095 82.1268 52.7068 81.7784 52.5044 81.4301 52.302 81.082 52.0041 80.6494 51.6107 80.1326 51.4083 79.7843 51.3014 79.5201 51.0035 79.0875 50.0476 78.2453 49.6766 78.0883 49.4966 78.0999 49.2324 78.2071 48.8951 78.59 48.9064 78.7697 48.9177 78.9497 49.0246 79.2139 49.1312 79.4778 49.3336 79.8262 49.5363 80.1746 49.7387 80.523 49.5587 80.5346 48.6983 79.7766 48.1138 79.0915 47.6246 78.4902 47.5177 78.2263 46.4553 77.12 46.1571 76.6874 45.775 76.3506 45.3926 76.0136 44.9991 75.4969 43.9364 74.3908 43.4585 73.9695 42.885 73.4644 42.7782 73.2002 42.7671 73.0202 42.7558 72.8405 42.6489 72.5763 42.5421 72.3121 42.1597 71.9754 41.4065 71.4816 41.131 71.4087 40.951 71.4203 40.5799 71.2633 40.4002 71.2746 40.2202 71.2863 39.8715 71.4892 39.1972 72.2549 38.5339 73.2002" fill="#002c61" fill-rule="evenodd" stroke-width="0"/><path d="M55.8941,73.537l.0113.1797-.0955-.0842-.1069-.2642.1797-.0113.0114.18h0ZM46.4323,70.9798l.0114.18.1068.2642.0111.1798.5734.5054.2756.0728.2755.0726.18-.0114.2755.0726.1797-.0113.18-.0116.1797-.0114.18-.0116.18-.0113.1798-.0117.2644-.1071.1798-.0116.2641-.1072,1.1075-1.0641.3374-.3827.1573-.3713.0731-.2758-.0113-.1798-.0111-.18-.0113-.18-.0114-.1797-.1068-.2642.0731-.2758.0731-.2755-.0113-.18-.011-.1797.1797-.0116.18-.0114.2642-.1071.2865.2525.0114.18.0113.1798.0114.18.011.18-.0731.2755.0113.18.0114.1797.0113.18.011.18.1069.2642.1069.2639.1068.2642.0114.18.011.1797.0114.18.0113.18-.4104.6585-.1574.3713.0111.1797.0113.18.1069.2642.1069.2642.1068.2639.1069.2642.0111.18.1068.2642.2024.3481.1069.2642.1068.2642.0114.18.011.1797.0114.18.1068.2642.1069.2642.1069.2639.2024.3484.6913.9493.0114.18.1068.2642.1911.1683.0955.0842.2869.2526.2755.0728.1797-.0116.2645-.1071.1797-.0114.2642-.1071.2642-.1074.2531-.2869.0732-.2758.0728-.2755-.011-.18-.0114-.1798-.0113-.18-.1069-.2642-.011-.18-.0114-.1797-.0113-.18.0955.0842.1069.2642.0113.18.0114.1797.011.18.0114.18.2023.3484.1069.2639.1069.2642.0113.18.0111.18.0113.1797.0114.18.011.18.0113.1797.1069.2642.1069.2642.2866.2526.2755.0728.2755.0726.2642-.1072.18-.0113.4215-.4785-.0113-.18.0731-.2755-.011-.18-.0114-.18-.0113-.18-.0114-.1797-.011-.18-.0114-.18-.0113-.1797-.011-.18-.0114-.18-.0113-.1798-.1069-.2642-.011-.18-.0114-.18-.1068-.2639-.1069-.2641-.1069-.2642-.011-.18.0728-.2756-.011-.18-.1069-.2639-.0113-.18-.1069-.2642-.1069-.2641-.1066-.264-.0113-.18-.1069-.2641-.0113-.18-.1069-.2639-.1066-.2642-.4892-.601-.1069-.2642-.0113-.18-.0111-.18.1573-.371.4216-.4785.18-.0116.3486-.203.2642-.1071.2753.0728.18-.0116.2755.0728.18-.0116,1.2424,1.0948.2979.4325.2024.3484.0114.18.1068.2642-.0731.2755-.0731.2755.6803.7696.0113.1798.1069.2642.011.18-.6743.7656-.18.0113-.3711-.157-.2755-.0726-.18.0114-.1797.0116-.2642.1071-.6747.7657.0114.18.2024.3484.5734.5051.1911.1684-.0732.2758.0114.1797.0113.18,1.0511.9264.2755.0725.2756.0729.18-.0114.1797-.0116.1068.2642.3824.3368.18-.0114.3374-.3829.6689.5896.1798-.0117.18-.0113.18-.0116.7588-.8612.2418-.4671.1573-.3714.0731-.2755.0729-.2755-.0111-.18.0729-.2756-.0111-.18-.0113-.18-.0113-.1797.0731-.2758-.0114-.1797-.011-.18-.0113-.18-.0114-.18-.011-.1797-.1069-.2642-.0113-.18-.0114-.1797-.011-.18-.1069-.2642-.0113-.18-.0114-.1797-.011-.18-.1069-.2642-.0113-.1797-.0114-.18-.1066-.2642-.0113-.18-.1069-.2639-.1068-.2642-.1069-.2642-.0111-.18-.1068-.2639-.8717-.938-.2024-.3484-.2979-.4325-.9558-.8422-.6577-.4096-.2755-.0726-1.04-.7464-.2756-.0728-.4665-.2412-.18.0116-.1798.0113-.18.0117-.18.0113-.1797.0116-.5173.3943-.517.3943-.6015.4898-.5174.3943-.8543.7773-.4329.2985-.2642.1071-.18.0117-.3597.0229-.2645.1072-.0955-.0842.0731-.2755-.0113-.18.0731-.2756.0732-.2758-.0114-.1797.0732-.2758.2418-.4669.0731-.2758.0729-.2755-.0111-.18-.0113-.1797-.0114-.18-.0113-.18-.0111-.1798-.0113-.18-.1069-.2641-.1068-.2642-.1069-.2639-.2979-.4326-.7645-.6738-.2756-.0728-.18.0116-.1797.0113-.18.0116-.18.0114-.3708-.1568-.18.0114-.18.0116-.1797.0113-.6015.4901-.2645.1072-.5057.5743.0111.1797.1069.2642-.3374.3829-.5901.6699-.1574.3713-.2417.4669-1.3493,1.5312-.3484.203-.2755-.0728-.18.0116-.1798.0113-.5059.5743-.0732.2755Z" fill="#002c61" fill-rule="evenodd" stroke-width="0"/><polygon points="16.0716 97.7502 16.1393 97.9107 16.2068 98.0711 16.2745 98.2318 16.3423 98.3923 16.5237 98.5989 17.2077 98.8767 18.1661 99.1333 18.6687 99.2044 19.057 99.2291 19.3314 99.2075 19.6058 99.186 19.8802 99.1644 20.0406 99.0967 20.2008 99.0289 20.4077 98.847 20.6609 98.5507 20.7535 98.3226 20.825 97.8194 20.8037 97.545 20.7825 97.2703 20.8542 96.7675 20.7864 96.6067 20.6047 96.4001 20.423 96.1932 20.0812 96.0543 19.6928 96.0296 19.4184 96.0512 19.258 96.1189 18.9836 96.1404 18.8232 96.2082 18.5488 96.2297 18.2744 96.2513 18 96.2728 17.7256 96.2944 17.5654 96.3621 17.3585 96.5441 17.1981 96.6121 16.8775 96.7476 16.6031 96.7692 16.4426 96.8372 16.236 97.0192 16.0503 97.4756 16.0716 97.7502" fill="#002c61" fill-rule="evenodd" stroke-width="0"/><polygon points="18.8521 103.0028 18.8733 103.2772 19.169 103.5304 19.5786 103.83 20.3303 104.2682 20.3516 104.5429 20.8077 104.728 21.0356 104.8207 21.1033 104.9811 21.285 105.1881 21.3525 105.3485 21.4203 105.5089 21.4415 105.7836 21.509 105.9441 21.5767 106.1045 21.6442 106.2649 21.6655 106.5396 21.7332 106.7001 21.801 106.8605 22.0966 107.1136 22.1641 107.2741 22.2993 107.595 22.367 107.7554 22.5487 107.9623 23.1188 108.1939 23.4606 108.3328 23.6888 108.4255 24.3051 108.5429 24.9216 108.6602 25.196 108.6387 25.3562 108.5709 25.5166 108.5032 25.677 108.4352 25.9302 108.1392 26.1156 107.6826 26.1408 107.2936 26.073 107.1332 26.0518 106.8585 25.9843 106.6981 25.9631 106.4234 25.9418 106.149 25.8741 105.9883 25.8066 105.8278 25.8315 105.4392 25.8568 105.0503 25.8355 104.7759 25.7678 104.6152 25.793 104.2266 25.9571 103.4952 25.9358 103.2205 25.9146 102.9461 25.8471 102.7857 25.8259 102.511 25.7581 102.3506 25.6907 102.1901 25.6229 102.0297 25.5554 101.869 25.4877 101.7085 25.4664 101.4341 25.4452 101.1595 25.3774 100.999 25.3562 100.7243 25.3349 100.4497 25.3601 100.0608 25.3854 99.6721 25.3641 99.3975 25.4355 98.8946 25.3678 98.7341 25.1399 98.6415 25.0721 98.481 25.0974 98.0921 25.0296 97.9317 25.0084 97.6573 24.9409 97.4965 24.8731 97.3361 24.8057 97.1757 24.7379 97.0152 24.6705 96.8548 24.6492 96.5801 24.6279 96.3054 24.6067 96.031 24.6316 95.6421 24.6104 95.3674 25.0954 94.5006 25.3698 94.4791 25.8724 94.5502 26.4886 94.6676 26.763 94.646 27.0374 94.6245 27.1978 94.5567 27.3583 94.489 27.5649 94.307 27.8433 93.6221 27.9147 93.119 27.8935 92.8443 27.8722 92.5699 27.6905 92.363 27.6227 92.2026 27.053 91.971 26.7786 91.9925 26.5042 92.0141 26.2298 92.0356 25.9554 92.0571 25.681 92.0787 25.2927 92.0537 25.1322 92.1218 24.8578 92.1433 24.6974 92.2111 24.537 92.2788 24.3765 92.3468 24.1699 92.5288 24.0094 92.5966 23.735 92.6181 23.5284 92.8001 23.2965 93.3707 22.9467 94.5587 22.9215 94.9473 22.6647 95.9069 22.7321 96.0673 22.6607 96.5705 22.6358 96.9591 22.657 97.2338 22.7245 97.3942 22.7457 97.6689 22.8135 97.8293 22.881 97.9898 22.9487 98.1502 22.97 98.4249 23.0374 98.5853 23.1052 98.7458 23.1264 99.0204 23.1942 99.1809 23.2154 99.4556 23.1902 99.8442 23.2115 100.1189 23.1862 100.5078 23.1613 100.8964 23.2288 101.0569 23.2965 101.2173 23.2713 101.6062 23.2463 101.9948 23.3138 102.1556 23.3815 102.316 23.4028 102.5904 23.4703 102.7511 23.3311 103.0935 23.078 103.3895 22.6221 103.2044 22.5544 103.0439 22.3727 102.837 22.1913 102.6304 19.7971 101.6578 19.5227 101.6791 19.3623 101.7471 19.2019 101.8148 18.8773 102.6139 18.8521 103.0028" fill="#002c61" fill-rule="evenodd" stroke-width="0"/><path d="M47.6356,105.3865l.114.0465-.114-.0465h0ZM44.4243,107.4067l-.207.182-.1604.0678-.1602.068-.1604.0678-.1605.0677-.2066.182-.2069.182-.1605.068-.1601.0678-.207.1819-.2743.0216-.1605.0677-.2066.182-.2067.182-.2069.182-.2067.182-.2318.5709-.0253.3886.0678.1607.1817.2067.9119.3704.3883.025.5026.0711.3884.0247.3883.0247.3884.0249.6165.1174.7302.1638.3884.0247.2743-.0216.1605-.0677.1604-.0678.1605-.068.1604-.0677.2067-.182.1604-.0678.1392-.3424.0462-.1142.1604-.0678.2067-.182.2069-.182.3923-.6386.2781-.6851-.0675-.1605-.0677-.1604-.798-.3243-.2744.0215-.2744.0216-.1139-.0462-.1817-.207-.0678-.1604-1.0258-.4167-.5026-.0711-.2744.0215-.7089.1108h0ZM45.0193,107.2497l.2743-.0215.1605-.0681.2744-.0215.3883.0249.4561.1851,1.1401.4632.1602-.0677.1604-.0678.2069-.182.2529-.2962.2069-.182.1605-.0677.1601-.0681.2069-.1819.1605-.0678.1601-.0677.2532-.2963.093-.2284-.0213-.2744-.0213-.2747-.0212-.2747-.1817-.2066-.2957-.2532-.1817-.2069-.1817-.2066.0253-.3889-.0678-.1605-.0675-.1604-.1817-.2067-.1817-.2069-.1814-.2066-.1817-.207-.2956-.2531-.2957-.2531-.1817-.2067-.5235-.3458-.1817-.2067-.0678-.1604-.1814-.2069-.2957-.2532-.1817-.2066-1.4357-.7163-.4096-.2994-.3422-.1389-.6162-.1176-.2744.0215-.2744.0216-.1604.0677-.1605.0681-.1389.3424-.0465.1142-.2744.0216-.1604.0677-.1604.0678-.1602.0677-.0678-.1604-.1817-.2067-.0212-.2746.0252-.3887-.0212-.2747-.0213-.2746-.0678-.1605-.0212-.2746.0465-.1143.2744-.0215.1604-.0678.2531-.2962.51-1.2555-.0213-.2746-.0212-.2747-.021-.2747-.0677-.1604-.1817-.2067-.912-.3707-.2743.0215-.2744.0215-.1605.0681-.2744.0215-.2744.0213-.1604.068-.2744.0215-.1604.0678-.1602.0677-.2744.0216-.1604.068-.1605.0678-.1604.0677-.1602.068-.1604.0678-.1605.0677-.1604.0681-.2993.4101-.093.2282-.2106.8456-.025.3886-.0252.389.0213.2746.0212.2744-.0252.3889.0212.2747.0213.2744.0213.2747-.025.3889.0213.2747-.1179.6171.0212.2744.0678.1604.0674.1605-.2531.2962-.2066.182-.1817-.2067-.0678-.1604-.0675-.1605-.0677-.1607-.1817-.2066-.1814-.207-.5701-.2313-.1139-.0465-.3422-.1389-.2744.0216-.1604.0677-.1604.0681-.0213-.2747-.0213-.2747-.0674-.1604-.0678-.1605-.1814-.2069-.0677-.1604-.1817-.2067-.0675-.1604-.1817-.207-.9122-.3704-.1602.0677-.2069.182-.3883-.0247-.2067.182-.3461.5244-.684-.2778-1.2075-.6236-.5236-.3458-.9122-.3705-.2744.0215-.2744.0216-.3883-.025-.2744.0216-.2744.0215-.1605.0678-.1604.068-.1602.0677-.2318.5709.0212.2744.0213.2747.0213.2747.0674.1604.0678.1605.684.278.57.2316.684.2778.798.3243.4096.2994-.0462.1142-.2532.2959-.2318.5709.0674.1605.0678.1604.0677.1604.2954.2532.2282.0927.2744-.0216.7305.1636.1601-.0678.1605-.0677.1604-.0678.1604-.068.2067-.182.1604-.0677.2067-.182.1604-.0677.2744-.0216.1817.2067.0675.1604-.5565,1.37-.2318.5706.0677.1604.0675.1605.0677.1607.798.324.2744-.0215.1604-.0678.1604-.0677.1602-.0681.1604-.0677.1605-.0678.2066-.182.207-.1819.2066-.182.2069-.182.1602-.068.1817.2069.1817.2066.0213.2747.0677.1605.0675.1604.0677.1604.0675.1605.0677.1607.0675.1604.1817.2067.0677.1604.0675.1605.0678.1604.0677.1607.021.2744.0677.1605.0678.1607.1814.2066.0677.1605-.0252.3889.0213.2744.0212.2747.1817.2069.0678.1604.0674.1605.0678.1604.0675.1605.0212.2746.0213.2747.0677.1605.0213.2746.0677.1605.0213.2747.0213.2743.0209.2747.0678.1605.0677.1604-.9122-.3705-.3883-.0246-.1604.0677-.228-.0927-.7979-.324-.1604.0678-.207.1819-.0927.2282.0213.2747.0677.1604.0675.1605.1817.2069.6378.392.6375.3921.4096.2993.5239.3458.2956.2532.8654.4847.0678.1604.4096.2994.1817.2066.1817.207.0212.2746-.684-.278-.5025-.0712-.5023-.0709-.3884-.0249-.3883-.0247-.3887-.0249-.3883-.0247-.6163-.1173-.4561-.1854-.4096-.2993-1.0261-.417-.798-.3243-.2956-.2529-1.2078-.6236-.9797-.5312-.5236-.3455-.1817-.207-2.3476-1.0868-1.2541-.5094-.7305-.1638-.7302-.1636-.5025-.0711-.7302-.1638-.2744.0215-.207.182-.2318.5709.0212.2747.0213.2743.0677.1605.1814.2069.6378.392.4096.2994.2957.2531,1.6637.809.0677.1605.9797.5309,1.14.4632.4559.1851.2956.2531.0678.1605.2956.2531.3422.1389,1.1398.4632,1.3683.5558,1.5284.4879.2744-.0213.2744-.0215.3883.0246.7302.1639.8445.21.3883.0247.2744-.0215.2744-.0216.3886.025.5023.0711.3884.0247.5023.0711.6165.1174.5023.0711.6166.1174.3883.0249.3883.0247.3884.0249.2744-.0215.2744-.0216.1604-.0677.2744-.0216.1605-.068.1604-.0677.1602-.0678.1604-.068.1604-.0678.2994-.4101.2531-.2963.093-.2284.0714-.5029-.0677-.1604-.0675-.1605-.0677-.1604-.5701-.2316-.1604.0677-.2744.0216-.3884-.0247-.684-.2781-.6375-.392-.4096-.2993.025-.3887-.0213-.2746-.0675-.1605-.0677-.1604-.1817-.2069-.0675-.1605-.0212-.2747-.0213-.2746-.0678-.1605-.0674-.1604-.0678-.1605-.0677-.1604-.0675-.1604-.0677-.1605.0714-.5029-.0213-.2746-.0674-.1605-.0213-.2746-.0677-.1605-.0675-.1604-.0677-.1605.0039-.6636-.0677-.1604-.0675-.1604-.0677-.1605-.0678-.1604-.0674-.1605-.0213-.2746.1641-.7314.0717-.5028-.0212-.2747.0249-.3887.5777-1.0953.2319-.5706-.0213-.2747-.0212-.2746-.0675-.1605-.7517-.4385.0714-.5029-.0213-.2746-.0212-.2744-.0213-.2747-.0212-.2747.1644-.7313-.0213-.2744.0252-.3889-.0212-.2747.0249-.3886-.0212-.2747.4175-1.0273.2279.0924.1817.207.0675.1604.0677.1604.0678.1605.0674.1604.0678.1605.0675.1604.0677.1607.0675.1605.0677.1604.0678.1604.0212.2747.0675.1605.0212.2746.0678.1605-.2571.9595.0213.2744.0677.1607.0675.1605.1817.2066.0677.1605.0213.2746-.0717.5029-.025.3889.0675.1605.0677.1604-.1392.3424-.3245.7991-.1644.7313.0212.2747.1817.2067.1817.2066.4561.1854.2744-.0215.1602-.0678.1604-.068.2069-.182.2994-.4102.2531-.2962.3923-.6386.1605-.0678.0674.1604.0678.1605.2956.2531.1817.2069.0213.2744.0675.1608.0677.1604.1817.2067.3419.1389.8232-.0644h0ZM42.7334,103.3952l-.0678-.1605-.0674-.1607-.0678-.1605-.0674-.1604.1854-.4567.2743-.0212.1605-.068.1604-.0678.1602-.0677,1.7566.5805.2957.2531.1814.2067.0677.1604.0678.1605.2956.2531.4096.2993.4096.2996.0675.1605.1817.2066.0213.2747-.5701-.2316-.2744.0216-.1601.0677-.1605.068-.2744.0216-.1604.0677-.114-.0462-.0677-.1607-.0675-.1604-.0677-.1605-.2957-.2531-.1817-.2067-.0674-.1604-.6378-.392-.5701-.2316-.1601.0677-.1605.0678-.2069.182-.2279-.0924h0ZM37.0273,105.9976l-.0675-.1604-.0678-.1604-.2352-.7827.1601-.068-.0864.091.4858.7427.1256-.0638-.3146.4016Z" fill="#002c61" fill-rule="evenodd" stroke-width="0"/></g></svg>